<?xml version="1.0" encoding="UTF-8" standalone="no"?>
<!DOCTYPE svg PUBLIC "-//W3C//DTD SVG 1.1//EN" "http://www.w3.org/Graphics/SVG/1.1/DTD/svg11.dtd">
<svg width="100%" height="100%" viewBox="0 0 727 1012" version="1.1" xmlns="http://www.w3.org/2000/svg" xmlns:xlink="http://www.w3.org/1999/xlink" xml:space="preserve" xmlns:serif="http://www.serif.com/" style="fill-rule:evenodd;clip-rule:evenodd;stroke-linejoin:round;stroke-miterlimit:2;">
    <g transform="matrix(1,0,0,1,-86.3155,-10.3279)">
        <path d="M343.427,28.034L344.017,28.311L380.003,50.303L405.99,70.293L419.983,84.286C419.994,84.297 420.007,84.306 420.021,84.313L428.021,88.313C428.062,88.334 428.111,88.333 428.152,88.311C428.193,88.289 428.22,88.249 428.226,88.203L430.225,72.215L436.219,52.235L444.215,34.243C444.218,34.237 444.22,34.231 444.222,34.224L448.192,20.328L451.942,20.328C451.942,20.328 451.942,66.185 451.942,66.185C451.942,66.197 451.943,66.21 451.946,66.221L461.946,104.221C461.949,104.23 461.952,104.239 461.956,104.247L483.956,150.247C483.963,150.261 483.972,150.275 483.983,150.286L491.983,158.286C492.013,158.315 492.053,158.33 492.095,158.328C492.136,158.325 492.174,158.304 492.199,158.271L504.193,142.279L536.181,110.29L562.173,88.297L586.166,70.303L608.16,56.307L628.152,44.311L673.804,22.478L667.953,36.129C667.951,36.133 667.949,36.138 667.948,36.143L659.948,62.143C659.947,62.147 659.946,62.151 659.945,62.155L649.945,108.155C649.944,108.16 649.943,108.164 649.942,108.169L645.942,144.169C645.942,144.175 645.942,144.18 645.942,144.185L645.942,164.185C645.942,164.264 646.006,164.328 646.084,164.328L654.084,164.328C654.097,164.328 654.109,164.326 654.121,164.323L684.12,156.323L707.828,150.396C707.828,150.396 693.955,180.125 693.955,180.125C693.954,180.126 693.953,180.128 693.953,180.13L683.953,204.13C683.951,204.133 683.95,204.137 683.949,204.14L673.949,234.14C673.948,234.144 673.946,234.148 673.945,234.152L663.945,276.152C663.944,276.158 663.943,276.164 663.942,276.171L659.942,316.171C659.938,316.215 659.955,316.26 659.988,316.29C660.02,316.32 660.066,316.334 660.11,316.326L682.097,312.328L737.853,312.328L733.958,320.118L715.96,352.115C715.959,352.117 715.958,352.119 715.957,352.121L699.957,384.121C699.956,384.123 699.955,384.124 699.955,384.125L687.955,410.125C687.952,410.131 687.95,410.137 687.948,410.143L679.948,436.143C679.947,436.147 679.946,436.15 679.945,436.154L675.945,454.154C675.929,454.226 675.97,454.297 676.039,454.321L700.025,462.316L724.006,476.305L745.987,492.291L757.969,506.27L771.956,528.25L780.641,550.83C786.091,554.843 790.042,560.903 791.226,568.103L800.026,621.589C802.067,629.995 803.525,639.588 804.386,643.896C805.475,649.338 806.128,655.116 806.516,661.04L812.737,698.85C814.007,706.567 811.847,714.063 807.375,719.778L805.942,754.172L803.945,768.154L795.95,794.136L785.957,818.119L771.972,840.095L749.99,862.077L723.997,882.072C723.98,882.085 723.966,882.102 723.957,882.121L717.957,894.121C717.955,894.125 717.953,894.128 717.952,894.132L697.955,944.125L679.962,978.111L661.979,1004.09L644.035,1018.04L620.125,1018.04L604.174,1008.07L578.189,982.087L564.192,966.091L564.19,966.089L544.19,944.089C544.163,944.059 544.125,944.042 544.084,944.042L532.084,944.042C532.047,944.042 532.01,944.057 531.983,944.084L527.983,948.084C527.968,948.1 527.956,948.119 527.949,948.14L517.953,978.127L507.965,996.106L493.994,1014.07L476.054,1022.04L454.108,1022.04L442.142,1018.05L424.162,1008.07L392.178,984.077L354.185,946.084C354.166,946.065 354.142,946.052 354.115,946.046L336.128,942.048L312.15,932.058L286.174,916.072L270.197,900.096L254.212,874.121L246.217,854.132C246.217,854.131 246.216,854.13 246.216,854.129L240.22,840.138L237.223,829.15C232.907,825.006 229.744,819.571 228.406,813.283L223.514,790.294C223.461,790.235 223.407,790.179 223.351,790.123C223.119,789.891 222.992,789.564 222.933,789.173C222.866,788.733 222.886,788.214 222.952,787.654L206.146,708.681C204.361,700.29 206.162,691.964 210.514,685.301L212.227,632.198L216.224,606.219L220.217,594.24L234.202,566.27L248.175,552.296L260.164,544.304C260.203,544.277 260.227,544.233 260.227,544.185L260.227,538.185C260.227,538.157 260.219,538.129 260.203,538.106L252.203,526.106C252.201,526.103 252.2,526.101 252.198,526.098L232.198,500.098C232.194,500.093 232.19,500.088 232.185,500.084L216.185,484.084C216.183,484.082 216.181,484.08 216.178,484.078L200.178,470.078L200.177,470.076L174.177,448.076C174.172,448.072 174.167,448.068 174.161,448.065L152.396,434.214L162.124,430.323L216.104,420.327L280.098,414.327C280.148,414.323 280.192,414.292 280.213,414.247C280.235,414.201 280.231,414.148 280.203,414.106L276.203,408.106C276.192,408.088 276.176,408.073 276.158,408.063L246.158,390.063C246.152,390.059 246.147,390.056 246.141,390.054L204.141,372.054C204.134,372.051 204.126,372.048 204.119,372.046L172.119,364.046C172.112,364.045 172.105,364.044 172.098,364.043L130.098,360.043C130.093,360.042 130.089,360.042 130.084,360.042L86.316,360.042C86.316,360.042 88.202,356.27 88.202,356.27L116.182,328.29L144.173,304.298L172.16,284.307L202.143,268.316L234.118,256.325L252.092,254.328L290.084,254.328C290.134,254.328 290.18,254.302 290.206,254.26C290.232,254.218 290.234,254.165 290.212,254.121L286.212,246.121C286.208,246.113 286.203,246.105 286.198,246.098L260.198,212.098C260.197,212.097 260.196,212.096 260.195,212.095L242.195,190.095C242.192,190.091 242.189,190.087 242.185,190.084L222.185,170.084C222.184,170.083 222.183,170.082 222.182,170.081L190.691,140.557L212.026,148.316L250.012,168.309L277.998,186.299L295.99,202.292C296.027,202.325 296.079,202.336 296.127,202.322C296.174,202.307 296.211,202.268 296.223,202.22L298.223,194.22C298.23,194.191 298.228,194.16 298.217,194.132L294.221,184.142L286.223,150.152C286.223,150.151 286.223,150.15 286.222,150.148L278.225,120.157L272.227,74.171L268.236,10.328L269.774,10.328L281.853,13.357C303.428,20.674 342.233,33.169 343.389,28.788L343.984,28.937L343.389,28.788C343.407,28.722 343.416,28.651 343.416,28.577C343.416,28.398 343.419,28.217 343.427,28.034Z" style="fill:rgb(37,23,16);"/>
    </g>
    <g transform="matrix(1,0,0,1,-86.3155,-10.3279)">
        <path d="M343.389,28.788C342.233,33.169 303.428,20.674 281.853,13.357L343.389,28.788Z" style="fill:rgb(37,23,16);"/>
    </g>
    <g transform="matrix(1,0,0,1,-86.3155,-10.3279)">
        <path d="M269.774,10.328L273.031,10.328C275.378,11.144 278.394,12.184 281.853,13.357L269.774,10.328Z" style="fill:rgb(37,23,16);"/>
    </g>
    <g transform="matrix(1,0,0,1,-86.2311,-0.142854)">
        <path d="M536,470L614,470L656,478L664,482L664,484L636,488L624,488L624,518L620,522L580,522L554,532L536,544L524,558L514,578L512,588L512,632L522,658L532,676L534,704L536,712L522,718L482,728L430,740L400,746L376,752L342,758L342,776L350,814L368,860L382,882L394,896L408,906L416,910L408,912L356,904L324,894L302,880L288,866L272,838L260,802L250,754L242,704L238,664L238,616L242,594L250,578L264,562L290,544L332,522L380,504L408,496L458,482L518,472L536,470Z" style="fill:rgb(250,209,1);fill-rule:nonzero;"/>
    </g>
    <g transform="matrix(1,0,0,1,-86.2311,-0.142854)">
        <path d="M664,482L674,484L706,500L724,514L740,536L752,564L758,588L762,620L764,652L764,748L756,776L742,800L728,816L724,816L724,820L692,844L660,862L628,876L606,884L574,892L558,894L560,890L564,890L568,882L578,868L582,858L584,846L584,798L574,748L566,714L564,702L546,712L534,714L532,704L530,676L518,654L510,632L510,588L516,568L530,548L546,534L562,526L580,520L620,520L622,518L624,488L664,482Z" style="fill:rgb(237,159,4);fill-rule:nonzero;"/>
    </g>
    <g transform="matrix(1,0,0,1,-86.2311,-0.142854)">
        <path d="M652,184L658,184L652,202L642,238L636,262L630,318L612,330L590,346L564,370L546,396L534,422L528,440L522,442L488,446L450,454L418,462L370,478L360,478L352,458L346,438L330,410L312,390L302,380L280,362L242,342L210,330L182,324L162,322L162,318L192,298L224,282L238,276L256,272L272,274L312,292L344,312L366,330L384,348L404,376L422,410L428,432L434,432L436,408L442,388L450,368L470,326L486,302L502,282L530,254L556,234L584,216L616,200L652,184Z" style="fill:rgb(66,160,57);fill-rule:nonzero;"/>
    </g>
    <g transform="matrix(1,0,0,1,-86.2311,-0.142854)">
        <path d="M540,728L552,728L564,784L568,804L568,822L558,820L542,816L518,816L494,824L472,836L448,858L438,876L438,888L442,890L442,878L454,862L472,844L492,832L508,826L548,826L564,832L570,836L568,848L560,866L542,884L510,900L478,908L460,908L436,902L416,892L398,874L386,854L374,830L364,796L360,780L360,772L418,758L464,748L490,742L536,730L540,728Z" style="fill:rgb(247,89,35);fill-rule:nonzero;"/>
    </g>
    <g transform="matrix(1,0,0,1,-86.2311,-0.142854)">
        <path d="M580,520L612,520L630,526L650,536L670,556L678,570L686,594L686,622L680,646L670,666L660,678L640,692L612,702L578,702L552,692L534,678L520,658L510,632L510,588L516,568L530,548L546,534L562,526L580,520Z" style="fill:rgb(37,23,16);fill-rule:nonzero;"/>
    </g>
    <g transform="matrix(1,0,0,1,-86.2311,-0.142854)">
        <path d="M298,30L316,36L354,56L380,76L404,98L424,118L444,144L468,180L500,236L498,244L478,266L454,300L438,332L430,354L428,354L420,324L406,280L396,256L370,198L358,166L344,124L344,118L340,118L340,140L334,186L330,188L318,152L300,68L298,50L298,30Z" style="fill:rgb(1,115,102);fill-rule:nonzero;"/>
    </g>
    <g transform="matrix(1,0,0,1,-86.2311,-0.142854)">
        <path d="M652,184L658,184L652,202L642,238L636,262L630,318L612,330L590,346L564,370L546,396L534,422L528,440L522,442L504,442L508,424L522,382L542,324L552,298L562,276L574,246L590,214L620,198L652,184Z" style="fill:rgb(1,115,102);fill-rule:nonzero;"/>
    </g>
    <g transform="matrix(1,0,0,1,-86.2311,-0.142854)">
        <path d="M298,30L316,36L354,56L380,76L386,82L388,90L390,152L392,170L394,222L396,246L388,238L370,198L358,166L344,124L344,118L340,118L340,140L334,186L330,188L318,152L300,68L298,50L298,30Z" style="fill:rgb(0,158,159);fill-rule:nonzero;"/>
    </g>
    <g transform="matrix(1,0,0,1,-86.2311,-0.142854)">
        <path d="M630,64L634,64L632,78L626,102L622,134L620,168L570,192L534,214L528,214L510,180L512,170L534,144L572,106L594,88L620,70L630,64Z" style="fill:rgb(1,115,102);fill-rule:nonzero;"/>
    </g>
    <g transform="matrix(1,0,0,1,-86.2311,-0.142854)">
        <path d="M676,668L728,668L734,670L738,720L718,740L690,758L664,770L644,774L634,774L630,728L628,700L630,694L640,692L642,696L652,692L676,668Z" style="fill:rgb(247,89,35);fill-rule:nonzero;"/>
    </g>
    <g transform="matrix(1,0,0,1,-86.2311,-0.142854)">
        <path d="M286,622L302,622L316,630L330,646L338,660L344,684L344,716L334,736L322,744L304,744L286,732L272,710L266,694L264,684L264,648L270,636L286,622Z" style="fill:rgb(37,23,16);fill-rule:nonzero;"/>
    </g>
    <g transform="matrix(1,0,0,1,-86.2311,-0.142854)">
        <path d="M178,310L226,310L258,318L292,334L318,354L342,376L358,396L376,426L392,458L394,470L370,478L360,478L352,458L346,438L330,410L312,390L302,380L280,362L242,342L210,330L182,324L162,322L162,318L170,312L178,310Z" style="fill:rgb(1,115,102);fill-rule:nonzero;"/>
    </g>
    <g transform="matrix(1,0,0,1,-86.2311,-0.142854)">
        <path d="M340,118L344,118L366,182L386,230L404,270L426,336L428,344L428,358L426,368L420,362L410,342L388,314L360,288L350,258L342,230L330,192L336,158L340,118Z" style="fill:rgb(66,160,57);fill-rule:nonzero;"/>
    </g>
    <g transform="matrix(1,0,0,1,-86.2311,-0.142854)">
        <path d="M688,332L688,338L664,384L646,438L558,436L560,424L580,396L600,374L624,356L656,340L688,332Z" style="fill:rgb(1,115,102);fill-rule:nonzero;"/>
    </g>
    <g transform="matrix(1,0,0,1,-86.2311,-0.142854)">
        <path d="M508,826L548,826L564,832L570,836L568,848L560,866L542,884L510,900L478,900L446,892L442,890L442,878L454,862L472,844L492,832L508,826Z" style="fill:rgb(237,159,4);fill-rule:nonzero;"/>
    </g>
    <g transform="matrix(1,0,0,1,-86.2311,-0.142854)">
        <path d="M590,540L610,540L630,548L644,558L656,576L658,580L658,600L646,618L634,624L614,624L596,616L582,604L572,584L570,578L570,562L580,546L590,540Z" style="fill:rgb(250,245,209);fill-rule:nonzero;"/>
    </g>
    <g transform="matrix(1,0,0,1,-86.2311,-0.142854)">
        <path d="M508,592L510,592L512,632L522,660L514,670L504,688L492,706L484,704L452,690L426,682L424,678L448,644L468,616L508,606L508,592Z" style="fill:rgb(237,159,4);fill-rule:nonzero;"/>
    </g>
    <g transform="matrix(1,0,0,1,-86.2311,-0.142854)">
        <path d="M296,432L314,432L326,462L332,484L332,492L312,500L290,512L286,512L272,490L250,464L240,454L240,450L232,446L226,440L226,436L296,432Z" style="fill:rgb(29,114,58);fill-rule:nonzero;"/>
    </g>
    <g transform="matrix(1,0,0,1,-86.2311,-0.142854)">
        <path d="M682,896L684,902L662,946L648,968L640,978L632,976L592,936L586,928L634,916L670,902L682,896Z" style="fill:rgb(237,159,4);fill-rule:nonzero;"/>
    </g>
    <g transform="matrix(1,0,0,1,-86.2311,-0.142854)">
        <path d="M522,484L552,484L570,488L612,490L616,522L580,522L552,532L544,520L528,502L520,490L522,484Z" style="fill:rgb(237,159,4);fill-rule:nonzero;"/>
    </g>
    <g transform="matrix(1,0,0,1,-86.2311,-0.142854)">
        <path d="M716,564L720,564L726,590L732,632L732,654L714,652L692,644L682,642L684,622L688,616L690,598L716,564Z" style="fill:rgb(247,89,35);fill-rule:nonzero;"/>
    </g>
    <g transform="matrix(1,0,0,1,-86.2311,-0.142854)">
        <path d="M588,92L590,96L570,132L552,172L546,192L536,212L528,214L510,180L512,170L534,144L572,106L588,92Z" style="fill:rgb(66,160,57);fill-rule:nonzero;"/>
    </g>
    <g transform="matrix(1,0,0,1,-86.2311,-0.142854)">
        <path d="M634,820L720,820L712,830L692,844L660,862L638,872L634,872L634,820Z" style="fill:rgb(247,89,35);fill-rule:nonzero;"/>
    </g>
    <g transform="matrix(1,0,0,1,-86.2311,-0.142854)">
        <path d="M736,738L738,738L738,764L734,788L730,800L728,802L648,802L648,798L662,790L672,786L700,768L724,750L736,738Z" style="fill:rgb(247,89,35);fill-rule:nonzero;"/>
    </g>
    <g transform="matrix(1,0,0,1,-86.2311,-0.142854)">
        <path d="M404,942L490,942L488,952L480,974L472,986L462,988L422,960L404,944L404,942Z" style="fill:rgb(237,159,4);fill-rule:nonzero;"/>
    </g>
    <g transform="matrix(1,0,0,1,-86.2311,-0.142854)">
        <path d="M522,832L546,832L548,842L534,852L514,858L500,864L468,876L454,878L456,870L478,852L506,836L522,832Z" style="fill:rgb(247,89,35);fill-rule:nonzero;"/>
    </g>
    <g transform="matrix(1,0,0,1,-86.2311,-0.142854)">
        <path d="M662,378L666,380L652,418L646,438L570,436L570,434L600,432L620,410L646,390L662,378Z" style="fill:rgb(1,79,54);fill-rule:nonzero;"/>
    </g>
    <g transform="matrix(1,0,0,1,-86.2311,-0.142854)">
        <path d="M518,510L526,514L536,528L546,536L528,552L520,562L520,558L496,558L498,548L518,510Z" style="fill:rgb(237,159,4);fill-rule:nonzero;"/>
    </g>
    <g transform="matrix(1,0,0,1,-86.2311,-0.142854)">
        <path d="M296,432L314,432L324,456L324,462L310,460L272,448L244,440L244,436L296,432Z" style="fill:rgb(1,79,54);fill-rule:nonzero;"/>
    </g>
    <g transform="matrix(1,0,0,1,-86.2311,-0.142854)">
        <path d="M628,918L630,918L630,934L624,958L618,962L592,936L586,928L628,918Z" style="fill:rgb(237,159,4);fill-rule:nonzero;"/>
    </g>
    <g transform="matrix(1,0,0,1,-86.2311,-0.142854)">
        <path d="M454,702L462,702L464,720L452,724L420,732L412,732L412,718L414,712L438,706L452,704L454,702Z" style="fill:rgb(37,23,16);fill-rule:nonzero;"/>
    </g>
    <g transform="matrix(1,0,0,1,-86.2311,-0.142854)">
        <path d="M288,574L298,576L310,584L326,598L338,616L340,630L332,626L316,612L292,590L288,584L288,574Z" style="fill:rgb(37,23,16);fill-rule:nonzero;"/>
    </g>
    <g transform="matrix(1,0,0,1,-86.2311,-0.142854)">
        <path d="M302,638L316,640L322,648L324,654L324,670L322,674L306,674L298,664L296,660L296,644L302,638Z" style="fill:rgb(250,245,209);fill-rule:nonzero;"/>
    </g>
    <g transform="matrix(1,0,0,1,-86.2311,-0.142854)">
        <path d="M536,470L614,470L650,476L642,480L618,480L608,482L590,482L564,474L536,472L536,470Z" style="fill:rgb(237,159,4);fill-rule:nonzero;"/>
    </g>
</svg>
