<?xml version="1.0" encoding="utf-8"?>
<svg xmlns="http://www.w3.org/2000/svg">
    <!--fence-->
    <symbol id="fence" viewBox="0 0 333 275" xmlns="http://www.w3.org/2000/svg" xml:space="preserve"
            style="fill-rule:evenodd;clip-rule:evenodd;stroke-linejoin:round;stroke-miterlimit:2;">
        <path fill="currentcolor" stroke="currentcolor"
              d="M183.264,230.171c-5.625,-0.313 -10.938,-0.625 -16.25,-1.25c0.312,4.062 0.312,8.125 0.625,12.5c0.312,9.687 0.312,19.687 0.625,29.375c-0,1.875 -0.938,2.812 -2.813,2.812l-44.375,0c-2.5,0 -2.812,-0.625 -2.812,-3.437l-0,-38.75c-0.313,-2.188 -0.938,-2.5 -3.125,-2.5c-7.5,0.312 -15,0.937 -22.5,1.25l-3.125,-0c0.312,4.687 0.312,9.062 0.937,13.437c0.938,7.813 1.875,15.625 3.125,23.75c0,1.25 0,1.875 -1.25,2.188c-0.937,0.312 -1.875,0.625 -2.812,0.625l-53.75,-0c-2.188,-0 -3.125,-0.625 -3.438,-2.813c-0.937,-6.562 -2.187,-12.812 -3.125,-19.375c-0.625,-5 -0.937,-10 -1.562,-15.312c-4.688,0.312 -9.375,0.625 -13.75,0.625c-3.438,0.312 -7.188,0.312 -10.938,0.312c-1.562,0 -2.812,-0.937 -2.812,-2.5l-0,-14.375c-0,-2.187 0.937,-2.812 3.125,-3.125c7.187,-0.312 14.375,-0.625 21.562,-0.937c-2.812,-35.625 -5.625,-70.625 -6.25,-106.25l-2.5,-0c-4.062,0.312 -8.437,0.625 -12.5,0.937c-2.187,0.313 -3.437,-0.937 -3.437,-3.125c-0,-4.687 -0.313,-9.375 -0,-14.375c-0,-0.937 1.562,-2.187 2.5,-2.5c3.75,-0.625 7.5,-0.937 11.25,-1.562l5,-0c-0,-3.438 -0.313,-6.25 -0,-9.375c0.625,-7.5 1.25,-15 1.875,-22.188c0.312,-2.812 0.312,-5.625 0.625,-8.437c-0,-0.938 0.625,-1.875 1.25,-2.188c8.125,-6.562 16.562,-12.812 25,-19.375c0.937,-0.937 1.875,-0.625 2.812,0c11.25,7.813 22.188,15.625 33.438,23.438c0.937,0.625 1.25,1.562 1.25,2.812l-0,33.438l25,-0c-0.313,-4.375 -0.625,-8.438 -0.938,-12.5c-0.937,-8.75 -1.875,-17.5 -2.812,-26.25c-0.313,-1.563 0.312,-2.813 1.562,-4.063c5.938,-5.625 11.563,-11.25 17.188,-17.187c0.625,-0.625 1.25,-1.563 2.5,-0.625c7.5,5.625 15,10.937 22.5,16.562c4.375,3.125 6.25,7.813 6.875,13.125c0.937,10 2.5,19.688 4.062,29.375c0,0.625 0.625,1.563 1.25,1.563l16.25,-0l0,-2.5c-0.312,-20 -0.625,-40 -0.937,-60c-0,-0.938 0.312,-1.875 0.937,-2.5c5.938,-5.938 11.875,-11.875 17.813,-17.813c1.25,-1.25 2.187,-1.562 3.75,-0.312c8.437,6.25 16.562,12.5 25,18.75c1.875,1.562 2.812,3.125 2.812,5.937c0.625,15.938 1.25,32.188 1.875,48.125l0,11.25l26.25,0c0.625,-5.625 1.25,-11.25 2.188,-16.875c1.25,-9.687 2.5,-19.375 3.75,-28.75c-0,-0.625 0.625,-1.25 1.25,-1.562c9.062,-5.625 18.437,-11.25 27.5,-16.563c0.312,-0.312 1.562,0 1.875,0.313c6.875,7.187 13.437,14.375 20,21.562c0.312,0.313 0.625,0.938 0.625,1.563c-1.563,11.875 -3.438,23.75 -5,35.625c-0.313,2.187 -0.313,4.062 -0.625,6.562c5.625,0.313 10.937,0.625 16.25,0.938c2.187,-0 4.062,-0 6.25,0.312c2.187,0 2.812,0.938 2.812,2.813l0,14.062c0,2.5 -0.625,3.125 -3.125,3.125c-8.125,0 -15.937,0.625 -24.375,-1.562c-3.125,35.937 -4.375,71.562 -5,107.5l27.813,-0c4.375,-0 4.687,0.312 4.687,4.687l0,11.563c0,3.437 -0.312,4.062 -4.062,4.062l-28.125,0c-0.313,5 -0.313,9.375 -0.625,14.063c-0.313,7.5 -0.625,15 -0.938,22.5c0,2.5 -0.937,3.437 -3.437,3.437l-44.063,0c-1.562,-0.312 -2.5,-1.25 -2.5,-3.437c0.625,-12.5 0.938,-25 1.25,-37.813l0,-1.25l-15.937,0l-0,5.938c0.625,10.937 1.562,21.562 2.187,32.5c0.313,2.812 -0.625,3.75 -3.75,3.75l-42.5,-0c-1.875,-0 -2.812,-0.938 -3.125,-2.5c-0.625,-4.063 -1.875,-8.125 -1.875,-11.875c-0.625,-9.063 -0.625,-18.125 -0.937,-27.188c-1.25,-0.937 -1.25,-1.562 -1.25,-2.187Zm-99.688,-126.25c0,35.312 0.625,70.625 3.75,105.937l30,0c0,-35.937 -1.25,-71.562 -5,-106.875c-9.687,0 -19.062,0.313 -28.75,0.938Zm166.563,107.187c1.25,-35.625 2.5,-70.625 3.75,-105.937c-8.125,-0.313 -16.25,-0.938 -24.375,-1.25c0.312,3.437 0.937,6.562 1.25,9.687c0.312,18.438 0.625,36.875 0.937,55.313c0.313,12.812 0.313,25.937 0.625,38.75c0,2.5 0.938,3.437 3.438,3.75c4.687,-0.313 9.687,-0.313 14.375,-0.313Zm-87.813,-109.062c1.563,36.25 3.438,71.875 5,107.5l14.688,-0l-0,-1.25c-0.625,-15 -1.25,-30.313 -1.563,-45.313c-0.312,-18.75 -0.625,-37.187 -0.625,-55.937c0,-2.188 -0.937,-3.125 -2.5,-3.438c-5,-0.625 -10,-0.937 -15,-1.562Zm42.188,12.812c-3.438,31.25 -2.188,62.188 3.437,92.813c4.688,-31.25 3.438,-62.188 -3.437,-92.813Zm-154.375,-9.062c5,-0 8.437,-3.438 8.437,-8.438c0,-5 -3.437,-8.75 -8.437,-8.437c-4.688,-0 -8.125,3.437 -8.125,8.437c-0,4.688 3.437,8.438 8.125,8.438Zm224.687,124.375c5,-0 8.125,-3.438 8.125,-8.438c0,-5 -3.437,-8.75 -8.437,-8.437c-4.688,-0 -8.125,3.437 -8.125,8.437c-0,5 3.437,8.438 8.437,8.438Zm-129.375,-136.25c0,-5 -3.125,-8.438 -8.125,-8.438c-5,0 -8.437,3.438 -8.437,8.438c-0,5 3.437,8.437 8.125,8.437c5.312,0.313 8.437,-3.125 8.437,-8.437Zm-11.875,126.875c0,5 3.438,8.437 8.125,8.437c5,0 8.438,-3.437 8.438,-8.437c-0,-5 -3.438,-8.438 -8.438,-8.438c-5,0 -8.125,3.438 -8.125,8.438Zm77.5,-126.563c0,-5 -3.437,-8.75 -8.125,-8.75c-4.687,0 -8.125,3.438 -8.437,8.438c-0,5 3.437,8.75 8.125,8.75c5,-0 8.437,-3.75 8.437,-8.438Zm-163.125,127.188c0,5 3.125,8.437 8.125,8.75c5,-0 8.438,-3.438 8.438,-8.438c-0,-5 -3.438,-8.75 -8.125,-8.75c-5,0 -8.438,3.438 -8.438,8.438Zm234.688,-115.313c5,0 8.437,-3.125 8.437,-8.437c0,-5 -3.125,-8.438 -8.125,-8.75c-5,-0 -8.437,3.125 -8.437,8.437c-0,5.313 3.125,8.75 8.125,8.75Zm-73.75,124.375c5,0 8.437,-3.125 8.437,-8.437c0,-5 -3.125,-8.438 -8.125,-8.438c-5,0 -8.437,3.438 -8.437,8.438c-0,5 3.437,8.437 8.125,8.437Z"/>
    </symbol>
    <!--fence-colored -->
    <symbol id="fence-colored" viewBox="0 0 333 275" xmlns="http://www.w3.org/2000/svg" xml:space="preserve"
            style="fill-rule:evenodd;clip-rule:evenodd;stroke-linejoin:round;stroke-miterlimit:2;">
        <path style="fill:#57390f;"
              d="M183.264,230.171c-5.625,-0.313 -10.938,-0.625 -16.25,-1.25c0.312,4.062 0.312,8.125 0.625,12.5c0.312,9.687 0.312,19.687 0.625,29.375c-0,1.875 -0.938,2.812 -2.813,2.812l-44.375,0c-2.5,0 -2.812,-0.625 -2.812,-3.437l-0,-38.75c-0.313,-2.188 -0.938,-2.5 -3.125,-2.5c-7.5,0.312 -15,0.937 -22.5,1.25l-3.125,-0c0.312,4.687 0.312,9.062 0.937,13.437c0.938,7.813 1.875,15.625 3.125,23.75c0,1.25 0,1.875 -1.25,2.188c-0.937,0.312 -1.875,0.625 -2.812,0.625l-53.75,-0c-2.188,-0 -3.125,-0.625 -3.438,-2.813c-0.937,-6.562 -2.187,-12.812 -3.125,-19.375c-0.625,-5 -0.937,-10 -1.562,-15.312c-4.688,0.312 -9.375,0.625 -13.75,0.625c-3.438,0.312 -7.188,0.312 -10.938,0.312c-1.562,0 -2.812,-0.937 -2.812,-2.5l-0,-14.375c-0,-2.187 0.937,-2.812 3.125,-3.125c7.187,-0.312 14.375,-0.625 21.562,-0.937c-2.812,-35.625 -5.625,-70.625 -6.25,-106.25l-2.5,-0c-4.062,0.312 -8.437,0.625 -12.5,0.937c-2.187,0.313 -3.437,-0.937 -3.437,-3.125c-0,-4.687 -0.313,-9.375 -0,-14.375c-0,-0.937 1.562,-2.187 2.5,-2.5c3.75,-0.625 7.5,-0.937 11.25,-1.562l5,-0c-0,-3.438 -0.313,-6.25 -0,-9.375c0.625,-7.5 1.25,-15 1.875,-22.188c0.312,-2.812 0.312,-5.625 0.625,-8.437c-0,-0.938 0.625,-1.875 1.25,-2.188c8.125,-6.562 16.562,-12.812 25,-19.375c0.937,-0.937 1.875,-0.625 2.812,0c11.25,7.813 22.188,15.625 33.438,23.438c0.937,0.625 1.25,1.562 1.25,2.812l-0,33.438l25,-0c-0.313,-4.375 -0.625,-8.438 -0.938,-12.5c-0.937,-8.75 -1.875,-17.5 -2.812,-26.25c-0.313,-1.563 0.312,-2.813 1.562,-4.063c5.938,-5.625 11.563,-11.25 17.188,-17.187c0.625,-0.625 1.25,-1.563 2.5,-0.625c7.5,5.625 15,10.937 22.5,16.562c4.375,3.125 6.25,7.813 6.875,13.125c0.937,10 2.5,19.688 4.062,29.375c0,0.625 0.625,1.563 1.25,1.563l16.25,-0l0,-2.5c-0.312,-20 -0.625,-40 -0.937,-60c-0,-0.938 0.312,-1.875 0.937,-2.5c5.938,-5.938 11.875,-11.875 17.813,-17.813c1.25,-1.25 2.187,-1.562 3.75,-0.312c8.437,6.25 16.562,12.5 25,18.75c1.875,1.562 2.812,3.125 2.812,5.937c0.625,15.938 1.25,32.188 1.875,48.125l0,11.25l26.25,0c0.625,-5.625 1.25,-11.25 2.188,-16.875c1.25,-9.687 2.5,-19.375 3.75,-28.75c-0,-0.625 0.625,-1.25 1.25,-1.562c9.062,-5.625 18.437,-11.25 27.5,-16.563c0.312,-0.312 1.562,0 1.875,0.313c6.875,7.187 13.437,14.375 20,21.562c0.312,0.313 0.625,0.938 0.625,1.563c-1.563,11.875 -3.438,23.75 -5,35.625c-0.313,2.187 -0.313,4.062 -0.625,6.562c5.625,0.313 10.937,0.625 16.25,0.938c2.187,-0 4.062,-0 6.25,0.312c2.187,0 2.812,0.938 2.812,2.813l0,14.062c0,2.5 -0.625,3.125 -3.125,3.125c-8.125,0 -15.937,0.625 -24.375,-1.562c-3.125,35.937 -4.375,71.562 -5,107.5l27.813,-0c4.375,-0 4.687,0.312 4.687,4.687l0,11.563c0,3.437 -0.312,4.062 -4.062,4.062l-28.125,0c-0.313,5 -0.313,9.375 -0.625,14.063c-0.313,7.5 -0.625,15 -0.938,22.5c0,2.5 -0.937,3.437 -3.437,3.437l-44.063,0c-1.562,-0.312 -2.5,-1.25 -2.5,-3.437c0.625,-12.5 0.938,-25 1.25,-37.813l0,-1.25l-15.937,0l-0,5.938c0.625,10.937 1.562,21.562 2.187,32.5c0.313,2.812 -0.625,3.75 -3.75,3.75l-42.5,-0c-1.875,-0 -2.812,-0.938 -3.125,-2.5c-0.625,-4.063 -1.875,-8.125 -1.875,-11.875c-0.625,-9.063 -0.625,-18.125 -0.937,-27.188c-1.25,-0.937 -1.25,-1.562 -1.25,-2.187Zm-99.688,-126.25c0,35.312 0.625,70.625 3.75,105.937l30,0c0,-35.937 -1.25,-71.562 -5,-106.875c-9.687,0 -19.062,0.313 -28.75,0.938Zm166.563,107.187c1.25,-35.625 2.5,-70.625 3.75,-105.937c-8.125,-0.313 -16.25,-0.938 -24.375,-1.25c0.312,3.437 0.937,6.562 1.25,9.687c0.312,18.438 0.625,36.875 0.937,55.313c0.313,12.812 0.313,25.937 0.625,38.75c0,2.5 0.938,3.437 3.438,3.75c4.687,-0.313 9.687,-0.313 14.375,-0.313Zm-87.813,-109.062c1.563,36.25 3.438,71.875 5,107.5l14.688,-0l-0,-1.25c-0.625,-15 -1.25,-30.313 -1.563,-45.313c-0.312,-18.75 -0.625,-37.187 -0.625,-55.937c0,-2.188 -0.937,-3.125 -2.5,-3.438c-5,-0.625 -10,-0.937 -15,-1.562Zm42.188,12.812c-3.438,31.25 -2.188,62.188 3.437,92.813c4.688,-31.25 3.438,-62.188 -3.437,-92.813Zm-154.375,-9.062c5,-0 8.437,-3.438 8.437,-8.438c0,-5 -3.437,-8.75 -8.437,-8.437c-4.688,-0 -8.125,3.437 -8.125,8.437c-0,4.688 3.437,8.438 8.125,8.438Zm224.687,124.375c5,-0 8.125,-3.438 8.125,-8.438c0,-5 -3.437,-8.75 -8.437,-8.437c-4.688,-0 -8.125,3.437 -8.125,8.437c-0,5 3.437,8.438 8.437,8.438Zm-129.375,-136.25c0,-5 -3.125,-8.438 -8.125,-8.438c-5,0 -8.437,3.438 -8.437,8.438c-0,5 3.437,8.437 8.125,8.437c5.312,0.313 8.437,-3.125 8.437,-8.437Zm-11.875,126.875c0,5 3.438,8.437 8.125,8.437c5,0 8.438,-3.437 8.438,-8.437c-0,-5 -3.438,-8.438 -8.438,-8.438c-5,0 -8.125,3.438 -8.125,8.438Zm77.5,-126.563c0,-5 -3.437,-8.75 -8.125,-8.75c-4.687,0 -8.125,3.438 -8.437,8.438c-0,5 3.437,8.75 8.125,8.75c5,-0 8.437,-3.75 8.437,-8.438Zm-163.125,127.188c0,5 3.125,8.437 8.125,8.75c5,-0 8.438,-3.438 8.438,-8.438c-0,-5 -3.438,-8.75 -8.125,-8.75c-5,0 -8.438,3.438 -8.438,8.438Zm234.688,-115.313c5,0 8.437,-3.125 8.437,-8.437c0,-5 -3.125,-8.438 -8.125,-8.75c-5,-0 -8.437,3.125 -8.437,8.437c-0,5.313 3.125,8.75 8.125,8.75Zm-73.75,124.375c5,0 8.437,-3.125 8.437,-8.437c0,-5 -3.125,-8.438 -8.125,-8.438c-5,0 -8.437,3.438 -8.437,8.438c-0,5 3.437,8.437 8.125,8.437Z"/>
    </symbol>
    <!--water can-->
    <symbol id="watercan" viewBox="0 0 2701 2222" xmlns="http://www.w3.org/2000/svg">
        <path d="M2472.39,949.185c92.965,-312.959 132.792,-661.844 -125.724,-881.262c-222.618,-189.626 -302.069,54.738 -336.955,280.292l-67.599,-87.544l-850.026,654.483l270.833,351.51l-760.633,-103.449c-26.747,-87.668 -96.739,-157.365 -186.908,-181.891c-9.987,-4.971 -20.876,-8.637 -32.215,-9.537c-5.872,-0.87 -12.24,0.9 -18.003,1.351c-0.87,0 -1.926,-0.451 -2.796,-0.451l0,0.451c-74.34,11.386 -141.054,117.957 -155.065,254.025c-6.788,68.066 -0.528,133.646 17.707,185.028c21.746,60.703 58.079,96.585 102.906,101.105c13.281,1.398 26.297,-0.451 39.081,-4.521c103.853,-8.092 191.801,-75.708 228.629,-170.644l918.4,124.807l335.682,436.29l850.305,-654.527l-227.622,-295.515l0.003,-0.001Zm-2139.54,488.451c-12.659,-3.744 -27.121,-22.803 -37.186,-50.886c-14.057,-40.355 -19.028,-95.59 -12.985,-151.944c9.087,-92.918 43.025,-157.768 72.616,-180.011c0.745,-0.901 1.227,-0.901 2.143,-1.771l-24.588,384.613l0.001,-0.001Zm2086,-557.868l-344.241,-447.799c4.52,-46.148 9.91,-92.39 17.677,-138.663c10.391,-65.27 26.343,-131.471 61.231,-188.228c74.34,-120.256 217.74,104.226 247.207,156.463c103.357,186.008 78.504,406.901 18.127,618.228l-0.001,-0.001Z"
              fill="currentcolor" stroke="currentcolor"/>
        <path d="M0,2032.27c0,27.214 21.87,48.944 48.944,48.944c27.214,-0 49.022,-21.745 49.022,-48.944c0,-26.919 -49.022,-82.977 -49.022,-82.977c0,-0 -48.944,56.059 -48.944,82.977Z"
              style="fill:#17a2b8;"/>
        <path d="M331.94,2133.43c0,48.494 39.5,87.994 88.118,87.994c47.998,-0 87.497,-39.454 87.497,-87.994c0,-48.572 -87.497,-148.403 -87.497,-148.403c-0,0 -88.118,99.815 -88.118,148.403Z"
              style="fill:#17a2b8;"/>
        <path d="M261.7,1609.01c-0,0 -82.931,94.86 -82.931,140.108c0,45.946 37.032,83.147 82.931,83.147c45.45,0 82.527,-37.185 82.527,-83.147c-0,-45.248 -82.527,-140.108 -82.527,-140.108Z"
              style="fill:#17a2b8;"/>
    </symbol>
    <!--water can-colored -->
    <symbol id="watercan-colored" viewBox="0 0 2701 2222" xmlns="http://www.w3.org/2000/svg">
        <path d="M2472.39,949.185c92.965,-312.959 132.792,-661.844 -125.724,-881.262c-222.618,-189.626 -302.069,54.738 -336.955,280.292l-67.599,-87.544l-850.026,654.483l270.833,351.51l-760.633,-103.449c-26.747,-87.668 -96.739,-157.365 -186.908,-181.891c-9.987,-4.971 -20.876,-8.637 -32.215,-9.537c-5.872,-0.87 -12.24,0.9 -18.003,1.351c-0.87,0 -1.926,-0.451 -2.796,-0.451l0,0.451c-74.34,11.386 -141.054,117.957 -155.065,254.025c-6.788,68.066 -0.528,133.646 17.707,185.028c21.746,60.703 58.079,96.585 102.906,101.105c13.281,1.398 26.297,-0.451 39.081,-4.521c103.853,-8.092 191.801,-75.708 228.629,-170.644l918.4,124.807l335.682,436.29l850.305,-654.527l-227.622,-295.515l0.003,-0.001Zm-2139.54,488.451c-12.659,-3.744 -27.121,-22.803 -37.186,-50.886c-14.057,-40.355 -19.028,-95.59 -12.985,-151.944c9.087,-92.918 43.025,-157.768 72.616,-180.011c0.745,-0.901 1.227,-0.901 2.143,-1.771l-24.588,384.613l0.001,-0.001Zm2086,-557.868l-344.241,-447.799c4.52,-46.148 9.91,-92.39 17.677,-138.663c10.391,-65.27 26.343,-131.471 61.231,-188.228c74.34,-120.256 217.74,104.226 247.207,156.463c103.357,186.008 78.504,406.901 18.127,618.228l-0.001,-0.001Z"
              style="fill:#606c38;"/>
        <path d="M0,2032.27c0,27.214 21.87,48.944 48.944,48.944c27.214,-0 49.022,-21.745 49.022,-48.944c0,-26.919 -49.022,-82.977 -49.022,-82.977c0,-0 -48.944,56.059 -48.944,82.977Z"
              style="fill:#17a2b8;"/>
        <path d="M331.94,2133.43c0,48.494 39.5,87.994 88.118,87.994c47.998,-0 87.497,-39.454 87.497,-87.994c0,-48.572 -87.497,-148.403 -87.497,-148.403c-0,0 -88.118,99.815 -88.118,148.403Z"
              style="fill:#17a2b8;"/>
        <path d="M261.7,1609.01c-0,0 -82.931,94.86 -82.931,140.108c0,45.946 37.032,83.147 82.931,83.147c45.45,0 82.527,-37.185 82.527,-83.147c-0,-45.248 -82.527,-140.108 -82.527,-140.108Z"
              style="fill:#17a2b8;"/>
    </symbol>
    <!-- carrot-->
    <symbol id="carrot" viewBox="0 0 2700 2700" xmlns="http://www.w3.org/2000/svg" style="fill-rule:evenodd;clip-rule:evenodd;stroke-linejoin:round;stroke-miterlimit:2;">
        <path style="fill:#606c38;fill-rule:nonzero;"
              d="M1209.83,613.967c6.157,-6.163 15.392,-15.408 24.628,-24.652c18.471,-15.408 15.392,-29.275 -15.393,-43.142c-40.02,-18.49 -80.041,-38.52 -116.983,-58.55c-33.864,-18.489 -27.707,-41.601 12.314,-52.386c-21.55,-33.898 -43.099,-67.795 -67.728,-101.692c-9.235,-13.867 0,-24.653 27.707,-29.275c52.335,-12.326 107.748,-23.112 153.926,-33.897c-6.157,-26.193 -12.314,-55.468 -21.55,-84.743c-6.157,-21.571 15.393,-38.52 52.335,-46.223c80.041,-18.49 160.083,-36.979 243.202,-52.387c107.748,-20.03 110.827,-18.489 178.554,26.193c21.55,13.867 43.099,26.194 61.57,40.061c46.178,27.734 46.178,50.845 3.079,80.12c-27.707,18.49 -58.492,38.52 -92.355,60.091c55.413,7.704 107.747,13.867 157.004,21.571c36.942,83.202 -98.513,83.202 -190.868,103.232c9.235,18.489 21.549,35.438 30.785,53.927c9.236,18.49 -9.236,30.816 -33.864,44.683c-98.512,52.387 -178.553,110.936 -221.653,180.271c-12.314,20.031 -21.549,41.601 -30.785,63.172c-49.256,6.164 -86.198,0 -123.14,-20.03c-89.277,-49.305 -197.025,-87.824 -323.244,-112.477c-18.471,-3.081 -43.099,-1.541 -64.649,1.541c-36.942,6.163 -70.806,15.408 -107.748,23.112c-61.57,12.326 -123.14,13.867 -172.397,-12.327c-36.942,-20.03 -76.962,-20.03 -116.983,-4.622c-6.157,1.541 -12.314,3.082 -18.471,4.622c-43.099,-30.815 -43.099,-30.815 -9.236,-78.579c-70.805,-3.082 -138.533,-10.786 -181.632,-41.601c-43.099,-30.816 -55.413,-64.713 -52.335,-95.529c92.356,-21.571 178.554,-43.142 267.831,-61.631c9.236,-3.082 30.785,-0 40.021,3.081c46.177,15.408 89.277,32.357 132.376,49.305c9.235,-7.704 12.314,-15.407 21.549,-21.571c24.628,-18.489 64.649,-21.57 92.356,-6.163c40.02,21.571 76.963,44.683 110.826,69.335c46.178,33.898 86.199,70.876 129.298,106.314c6.157,4.623 15.392,12.327 24.628,13.867c64.649,13.867 129.297,24.653 197.025,36.979Z"/>

        <path fill="currentcolor" stroke="currentcolor"
              d="M1850.16,1895.9c12.314,-15.408 -3.078,-20.03 -27.706,-23.111c-138.533,-18.49 -280.145,-20.031 -418.678,-0c-30.785,4.622 -46.178,-0 -61.57,-12.327c-46.178,-33.897 -86.199,-69.335 -92.356,-110.936c0,-9.245 9.236,-21.571 21.55,-27.734c141.612,-61.631 298.616,-107.855 495.64,-110.936c15.393,-16.949 -6.157,-20.03 -30.785,-23.112c-160.082,-24.653 -320.165,-12.326 -477.169,7.704c-36.942,4.622 -76.963,9.245 -113.905,13.867c-9.236,1.541 -27.707,-1.541 -30.785,-6.163c-24.628,-24.653 -46.178,-50.846 -67.728,-75.498c-12.314,-12.327 0,-21.571 21.55,-29.275c135.455,-55.468 292.459,-92.447 455.62,-123.263c46.178,-7.704 92.355,-13.867 135.455,-23.112c12.314,-3.081 21.549,-10.785 30.785,-16.948c-12.314,-4.623 -21.55,-9.245 -36.942,-12.326c-175.476,-29.275 -341.715,-0 -504.877,27.734c-61.57,10.785 -123.14,23.111 -187.789,36.978c-67.727,-41.601 -120.062,-87.824 -144.69,-140.211c-49.256,-109.395 -33.864,-212.628 120.062,-301.993c95.434,-55.468 221.653,-84.743 360.186,-92.447c147.769,-7.704 298.616,-10.785 449.463,-7.704c132.376,1.541 230.888,41.601 298.616,98.61c76.962,64.713 107.748,138.671 120.062,212.628c40.02,215.71 55.413,432.96 52.334,650.21c-3.078,235.739 0,469.938 0,705.678c0,33.897 -67.727,70.876 -132.376,73.957c-30.785,1.541 -64.648,3.082 -95.434,0c-18.471,-1.541 -40.02,-9.244 -49.256,-18.489c-40.02,-32.357 -80.041,-64.713 -107.748,-100.151c-126.219,-158.7 -252.438,-317.401 -375.578,-477.642c-3.079,-4.622 3.078,-16.949 12.314,-20.03c120.062,-33.897 240.124,-67.795 381.735,-73.958Z"/>
    </symbol>
    <!-- carrot-colored -->
    <symbol id="carrot-colored" viewBox="0 0 2700 2700" xmlns="http://www.w3.org/2000/svg" style="fill-rule:evenodd;clip-rule:evenodd;stroke-linejoin:round;stroke-miterlimit:2;">
        <path style="fill:#606c38;fill-rule:nonzero;"
              d="M1209.83,613.967c6.157,-6.163 15.392,-15.408 24.628,-24.652c18.471,-15.408 15.392,-29.275 -15.393,-43.142c-40.02,-18.49 -80.041,-38.52 -116.983,-58.55c-33.864,-18.489 -27.707,-41.601 12.314,-52.386c-21.55,-33.898 -43.099,-67.795 -67.728,-101.692c-9.235,-13.867 0,-24.653 27.707,-29.275c52.335,-12.326 107.748,-23.112 153.926,-33.897c-6.157,-26.193 -12.314,-55.468 -21.55,-84.743c-6.157,-21.571 15.393,-38.52 52.335,-46.223c80.041,-18.49 160.083,-36.979 243.202,-52.387c107.748,-20.03 110.827,-18.489 178.554,26.193c21.55,13.867 43.099,26.194 61.57,40.061c46.178,27.734 46.178,50.845 3.079,80.12c-27.707,18.49 -58.492,38.52 -92.355,60.091c55.413,7.704 107.747,13.867 157.004,21.571c36.942,83.202 -98.513,83.202 -190.868,103.232c9.235,18.489 21.549,35.438 30.785,53.927c9.236,18.49 -9.236,30.816 -33.864,44.683c-98.512,52.387 -178.553,110.936 -221.653,180.271c-12.314,20.031 -21.549,41.601 -30.785,63.172c-49.256,6.164 -86.198,0 -123.14,-20.03c-89.277,-49.305 -197.025,-87.824 -323.244,-112.477c-18.471,-3.081 -43.099,-1.541 -64.649,1.541c-36.942,6.163 -70.806,15.408 -107.748,23.112c-61.57,12.326 -123.14,13.867 -172.397,-12.327c-36.942,-20.03 -76.962,-20.03 -116.983,-4.622c-6.157,1.541 -12.314,3.082 -18.471,4.622c-43.099,-30.815 -43.099,-30.815 -9.236,-78.579c-70.805,-3.082 -138.533,-10.786 -181.632,-41.601c-43.099,-30.816 -55.413,-64.713 -52.335,-95.529c92.356,-21.571 178.554,-43.142 267.831,-61.631c9.236,-3.082 30.785,-0 40.021,3.081c46.177,15.408 89.277,32.357 132.376,49.305c9.235,-7.704 12.314,-15.407 21.549,-21.571c24.628,-18.489 64.649,-21.57 92.356,-6.163c40.02,21.571 76.963,44.683 110.826,69.335c46.178,33.898 86.199,70.876 129.298,106.314c6.157,4.623 15.392,12.327 24.628,13.867c64.649,13.867 129.297,24.653 197.025,36.979Z"/>
        <path style="fill:#b08968;fill-rule:nonzero;"
              d="M1850.16,1895.9c12.314,-15.408 -3.078,-20.03 -27.706,-23.111c-138.533,-18.49 -280.145,-20.031 -418.678,-0c-30.785,4.622 -46.178,-0 -61.57,-12.327c-46.178,-33.897 -86.199,-69.335 -92.356,-110.936c0,-9.245 9.236,-21.571 21.55,-27.734c141.612,-61.631 298.616,-107.855 495.64,-110.936c15.393,-16.949 -6.157,-20.03 -30.785,-23.112c-160.082,-24.653 -320.165,-12.326 -477.169,7.704c-36.942,4.622 -76.963,9.245 -113.905,13.867c-9.236,1.541 -27.707,-1.541 -30.785,-6.163c-24.628,-24.653 -46.178,-50.846 -67.728,-75.498c-12.314,-12.327 0,-21.571 21.55,-29.275c135.455,-55.468 292.459,-92.447 455.62,-123.263c46.178,-7.704 92.355,-13.867 135.455,-23.112c12.314,-3.081 21.549,-10.785 30.785,-16.948c-12.314,-4.623 -21.55,-9.245 -36.942,-12.326c-175.476,-29.275 -341.715,-0 -504.877,27.734c-61.57,10.785 -123.14,23.111 -187.789,36.978c-67.727,-41.601 -120.062,-87.824 -144.69,-140.211c-49.256,-109.395 -33.864,-212.628 120.062,-301.993c95.434,-55.468 221.653,-84.743 360.186,-92.447c147.769,-7.704 298.616,-10.785 449.463,-7.704c132.376,1.541 230.888,41.601 298.616,98.61c76.962,64.713 107.748,138.671 120.062,212.628c40.02,215.71 55.413,432.96 52.334,650.21c-3.078,235.739 0,469.938 0,705.678c0,33.897 -67.727,70.876 -132.376,73.957c-30.785,1.541 -64.648,3.082 -95.434,0c-18.471,-1.541 -40.02,-9.244 -49.256,-18.489c-40.02,-32.357 -80.041,-64.713 -107.748,-100.151c-126.219,-158.7 -252.438,-317.401 -375.578,-477.642c-3.079,-4.622 3.078,-16.949 12.314,-20.03c120.062,-33.897 240.124,-67.795 381.735,-73.958Z"/>

    </symbol>
    <!-- plant-pot -->
    <symbol id="plant-pot" viewBox="0 0 2700 2700" xmlns="http://www.w3.org/2000/svg" style="fill-rule:evenodd;clip-rule:evenodd;stroke-linejoin:round;stroke-miterlimit:2;">
        <path fill="currentcolor" stroke="currentcolor"
              d="M1784.3,1609.72l0,-49.718l-1212.18,0c-7.194,0 -10.791,-3.824 -12.589,-13.385l-0,-386.271c-0,-17.21 5.395,-21.034 19.783,-21.034l1611.45,-0c8.993,1.912 12.59,5.736 12.59,15.298l-0,380.533c-0,19.123 -3.597,22.947 -21.582,22.947l-89.925,-0c-1.798,13.386 -3.597,24.859 -3.597,36.332c-10.791,110.91 -23.38,223.731 -34.171,334.64c-8.993,87.963 -19.783,175.926 -30.574,263.888c-8.993,70.753 -21.582,139.593 -30.575,210.345c-3.597,24.859 -12.589,43.982 -28.776,63.104c-17.985,21.034 -37.768,42.069 -61.148,59.279c-25.179,17.21 -53.955,24.859 -82.731,24.859l-848.888,-0c-68.343,-0 -118.701,-30.596 -152.872,-93.699c-21.582,-38.245 -35.97,-80.314 -48.559,-122.383c-19.784,-66.928 -32.373,-133.856 -39.567,-202.696c-8.993,-74.577 -16.187,-151.066 -23.381,-225.643c-5.395,-63.104 -8.992,-126.207 -14.388,-187.399c-1.798,-28.683 -5.395,-55.454 -7.194,-84.138l0,-9.561c0,-11.473 3.597,-17.21 14.388,-17.21l89.925,-0c10.791,-0 21.582,-0 32.373,1.912c14.388,0 16.186,0 19.783,17.21c3.597,17.21 7.194,34.42 10.791,51.63c7.194,65.016 16.187,130.032 21.582,195.048c7.194,68.84 12.589,139.593 19.783,208.433c3.597,30.595 7.194,61.191 12.59,91.787c1.798,13.385 7.194,26.771 10.791,40.157c8.992,28.683 17.985,57.366 26.977,84.138c10.791,28.683 23.381,53.542 41.366,76.489c25.178,30.596 55.753,47.806 95.32,47.806c14.388,-0 25.179,-3.825 34.171,-11.474c-39.567,-93.699 -57.552,-193.135 -71.94,-294.483c-14.388,-105.173 -21.582,-212.258 -23.38,-317.43c-1.799,-49.718 -1.799,-99.436 -3.597,-149.154l-0,-26.771c1.798,-11.474 7.194,-15.298 19.783,-13.386c5.396,0 10.791,1.912 17.985,1.912l712.203,0c5.396,-1.912 10.791,-1.912 17.985,-1.912Z"/>
        <path fill="currentcolor" stroke="currentcolor"
              d="M2046.88,489.151c-12.589,3.824 -23.38,5.737 -35.97,9.561c-16.186,3.824 -30.574,9.561 -46.761,15.298c-14.388,5.737 -14.388,7.649 -14.388,22.947c3.597,70.752 7.194,143.417 12.59,214.169c5.395,72.665 10.791,145.33 17.985,217.994c1.798,30.596 5.395,61.192 8.992,93.7c-7.194,7.649 -16.186,9.561 -26.977,9.561l-863.276,-0c-12.59,-0 -19.784,-3.825 -25.179,-17.21c-10.791,-24.859 -21.582,-49.718 -28.776,-74.577c-19.784,-66.928 -39.567,-135.769 -59.35,-202.697c-0,-1.912 -1.799,-5.736 -1.799,-9.561c5.396,-1.912 12.59,-5.736 17.985,-7.649c35.97,-9.561 71.94,-21.034 107.91,-28.683c165.461,-34.42 329.124,-68.84 494.585,-103.26c21.582,-3.825 43.164,-9.562 66.544,-13.386l0,-40.157c-5.395,0 -10.791,0 -16.186,1.912c-178.051,36.333 -357.9,72.665 -535.951,108.997c-131.29,26.772 -260.781,53.543 -392.071,78.402c-52.157,9.561 -104.313,19.122 -154.671,26.771l-5.395,0c-7.194,-13.386 -71.94,-348.026 -70.141,-370.972c492.787,-103.261 985.573,-208.433 1480.16,-311.694c3.597,11.474 7.194,21.035 8.992,30.596c10.791,53.542 21.582,108.997 32.373,162.539c10.791,59.279 19.783,116.646 28.776,175.925l-0,11.474Z"/>
    </symbol>
    <!-- plant-pot -->
    <symbol id="plant-pot-colored" viewBox="0 0 2700 2700" xmlns="http://www.w3.org/2000/svg"
            style="fill-rule:evenodd;clip-rule:evenodd;stroke-linejoin:round;stroke-miterlimit:2;">
        <path style="fill:#755941;fill-rule:nonzero;"
              d="M1784.3,1609.72l0,-49.718l-1212.18,0c-7.194,0 -10.791,-3.824 -12.589,-13.385l-0,-386.271c-0,-17.21 5.395,-21.034 19.783,-21.034l1611.45,-0c8.993,1.912 12.59,5.736 12.59,15.298l-0,380.533c-0,19.123 -3.597,22.947 -21.582,22.947l-89.925,-0c-1.798,13.386 -3.597,24.859 -3.597,36.332c-10.791,110.91 -23.38,223.731 -34.171,334.64c-8.993,87.963 -19.783,175.926 -30.574,263.888c-8.993,70.753 -21.582,139.593 -30.575,210.345c-3.597,24.859 -12.589,43.982 -28.776,63.104c-17.985,21.034 -37.768,42.069 -61.148,59.279c-25.179,17.21 -53.955,24.859 -82.731,24.859l-848.888,-0c-68.343,-0 -118.701,-30.596 -152.872,-93.699c-21.582,-38.245 -35.97,-80.314 -48.559,-122.383c-19.784,-66.928 -32.373,-133.856 -39.567,-202.696c-8.993,-74.577 -16.187,-151.066 -23.381,-225.643c-5.395,-63.104 -8.992,-126.207 -14.388,-187.399c-1.798,-28.683 -5.395,-55.454 -7.194,-84.138l0,-9.561c0,-11.473 3.597,-17.21 14.388,-17.21l89.925,-0c10.791,-0 21.582,-0 32.373,1.912c14.388,0 16.186,0 19.783,17.21c3.597,17.21 7.194,34.42 10.791,51.63c7.194,65.016 16.187,130.032 21.582,195.048c7.194,68.84 12.589,139.593 19.783,208.433c3.597,30.595 7.194,61.191 12.59,91.787c1.798,13.385 7.194,26.771 10.791,40.157c8.992,28.683 17.985,57.366 26.977,84.138c10.791,28.683 23.381,53.542 41.366,76.489c25.178,30.596 55.753,47.806 95.32,47.806c14.388,-0 25.179,-3.825 34.171,-11.474c-39.567,-93.699 -57.552,-193.135 -71.94,-294.483c-14.388,-105.173 -21.582,-212.258 -23.38,-317.43c-1.799,-49.718 -1.799,-99.436 -3.597,-149.154l-0,-26.771c1.798,-11.474 7.194,-15.298 19.783,-13.386c5.396,0 10.791,1.912 17.985,1.912l712.203,0c5.396,-1.912 10.791,-1.912 17.985,-1.912Z"/>
        <path style="fill:#B08968;fill-rule:nonzero;"
              d="M2046.88,489.151c-12.589,3.824 -23.38,5.737 -35.97,9.561c-16.186,3.824 -30.574,9.561 -46.761,15.298c-14.388,5.737 -14.388,7.649 -14.388,22.947c3.597,70.752 7.194,143.417 12.59,214.169c5.395,72.665 10.791,145.33 17.985,217.994c1.798,30.596 5.395,61.192 8.992,93.7c-7.194,7.649 -16.186,9.561 -26.977,9.561l-863.276,-0c-12.59,-0 -19.784,-3.825 -25.179,-17.21c-10.791,-24.859 -21.582,-49.718 -28.776,-74.577c-19.784,-66.928 -39.567,-135.769 -59.35,-202.697c-0,-1.912 -1.799,-5.736 -1.799,-9.561c5.396,-1.912 12.59,-5.736 17.985,-7.649c35.97,-9.561 71.94,-21.034 107.91,-28.683c165.461,-34.42 329.124,-68.84 494.585,-103.26c21.582,-3.825 43.164,-9.562 66.544,-13.386l0,-40.157c-5.395,0 -10.791,0 -16.186,1.912c-178.051,36.333 -357.9,72.665 -535.951,108.997c-131.29,26.772 -260.781,53.543 -392.071,78.402c-52.157,9.561 -104.313,19.122 -154.671,26.771l-5.395,0c-7.194,-13.386 -71.94,-348.026 -70.141,-370.972c492.787,-103.261 985.573,-208.433 1480.16,-311.694c3.597,11.474 7.194,21.035 8.992,30.596c10.791,53.542 21.582,108.997 32.373,162.539c10.791,59.279 19.783,116.646 28.776,175.925l-0,11.474Z"/>
    </symbol>
    <!-- shovel -->
    <symbol id="shovel" viewBox="0 0 2450 2700" xmlns="http://www.w3.org/2000/svg" style="fill-rule:evenodd;clip-rule:evenodd;stroke-linejoin:round;stroke-miterlimit:2;">
        <path fill="currentcolor" stroke="currentcolor"
              d="M1960.95,1275.89l-365.123,293.063l129.304,167.755l43.059,198.43l-214.811,-36.381l-158.934,-166.027l-363.359,291.676c-0,0 474.194,620.168 743.152,662.616c268.871,42.862 582.888,-34.202 582.888,-34.202c-0,-0 76.919,-237.33 91.915,-510.485c15.787,-270.992 -488.093,-866.446 -488.093,-866.446l0.002,0.001Zm-547.872,441.846l152.076,158.899l172.22,29.145l-34.384,-158.791l-125.793,-163.129l-1.621,1.278l-624.073,-736.007l41.349,-394.987l-201.13,-251.048l69.593,-56.778l-117.873,-146.315l-743.443,597.881l117.315,148.801l69.595,-56.921l203.523,251.246l399.65,43.096l623.083,733.522l-0.089,0.108l0.002,0Zm-598.206,-867.309l-354.269,-38.253l-167.413,-206.764l393.835,-317.259l165.128,205.9l-37.281,356.375l0,0.001Z"/>
        <path fill="currentcolor" stroke="currentcolor"
              d="M1960.95,1275.89l-365.123,293.063l129.304,167.755l43.059,198.43l-214.811,-36.381l-158.934,-166.027l-363.359,291.676c-0,0 474.194,620.168 743.152,662.616c268.871,42.862 582.888,-34.202 582.888,-34.202c-0,-0 76.919,-237.33 91.915,-510.485c15.787,-270.992 -488.093,-866.446 -488.093,-866.446l0.002,0.001Z"/>
    </symbol>
    <!-- shovel-colored -->
    <symbol id="shovel-colored" viewBox="0 0 2450 2700" xmlns="http://www.w3.org/2000/svg" style="fill-rule:evenodd;clip-rule:evenodd;stroke-linejoin:round;stroke-miterlimit:2;">
        <path style="fill:#755941;"
              d="M1960.95,1275.89l-365.123,293.063l129.304,167.755l43.059,198.43l-214.811,-36.381l-158.934,-166.027l-363.359,291.676c-0,0 474.194,620.168 743.152,662.616c268.871,42.862 582.888,-34.202 582.888,-34.202c-0,-0 76.919,-237.33 91.915,-510.485c15.787,-270.992 -488.093,-866.446 -488.093,-866.446l0.002,0.001Zm-547.872,441.846l152.076,158.899l172.22,29.145l-34.384,-158.791l-125.793,-163.129l-1.621,1.278l-624.073,-736.007l41.349,-394.987l-201.13,-251.048l69.593,-56.778l-117.873,-146.315l-743.443,597.881l117.315,148.801l69.595,-56.921l203.523,251.246l399.65,43.096l623.083,733.522l-0.089,0.108l0.002,0Zm-598.206,-867.309l-354.269,-38.253l-167.413,-206.764l393.835,-317.259l165.128,205.9l-37.281,356.375l0,0.001Z"/>
        <path style="fill:#6c757d;"
              d="M1960.95,1275.89l-365.123,293.063l129.304,167.755l43.059,198.43l-214.811,-36.381l-158.934,-166.027l-363.359,291.676c-0,0 474.194,620.168 743.152,662.616c268.871,42.862 582.888,-34.202 582.888,-34.202c-0,-0 76.919,-237.33 91.915,-510.485c15.787,-270.992 -488.093,-866.446 -488.093,-866.446l0.002,0.001Z"/>
    </symbol>
    <!-- sun -->
    <symbol id="sun" viewBox="0 0 2700 2700" xmlns="http://www.w3.org/2000/svg" style="fill-rule:evenodd;clip-rule:evenodd;stroke-linejoin:round;stroke-miterlimit:2;">
        <path fill="currentcolor" stroke="currentcolor"
              d="M1269.97,641.635c21.312,16.751 49.19,24.029 79.08,24.029c0.709,0.085 1.519,0.085 2.33,0.085l2.414,-0c26.766,0.05 51.791,-8.174 70.366,-25.111c18.592,-16.97 29.534,-42.536 29.484,-73.101c-0,-13.762 -2.094,-28.639 -6.518,-44.411l-87.539,-511.017c-1.25,-6.975 -7.278,-12.108 -14.388,-12.108c-7.142,-0.084 -13.272,4.999 -14.437,12.057l-91.508,522.736c-2.33,10.942 -3.478,21.31 -3.478,31.358c-0.17,32.405 12.918,58.9 34.194,75.482l0,0.001Z"/>
        <path fill="currentcolor" stroke="currentcolor"
              d="M1688.34,761.189c18.136,11.567 38.467,18.237 58.799,18.237l0.81,0c42.891,0 82.034,-32.033 97.182,-91.811l182.423,-485.249c2.466,-6.619 -0.135,-14.116 -6.299,-17.696c-6.078,-3.665 -13.897,-2.28 -18.491,3.123l-342.945,404.919l-0.034,-0.017c-22.475,24.756 -33.604,50.795 -33.468,75.871c0.05,39.362 26.106,71.582 62.023,92.622l0,0.001Z"/>
        <path fill="currentcolor" stroke="currentcolor"
              d="M2004.67,860.735c-52.905,15.907 -79.923,53.48 -79.265,94.361c-0,21.987 6.924,44.277 18.947,65.537c16.971,33.772 48.261,57.548 85.648,57.498c28.504,-0 58.478,-13.763 86.678,-41.912l402.604,-326.651c5.488,-4.509 7.008,-12.243 3.53,-18.541c-3.445,-6.164 -10.943,-8.984 -17.647,-6.519l-500.445,176.294l-0.05,-0.067l0,0Z"/>
        <path fill="currentcolor" stroke="currentcolor"
              d="M2688.11,1359.96l-521.215,-99.731c-11.804,-2.685 -22.882,-3.968 -33.368,-3.968c-65.502,-0.675 -99.224,53.259 -99.326,111.653c-0.135,1.789 -0.27,4.204 -0.27,6.788c-0,26.68 8.257,51.605 25.33,70.011c16.971,18.456 42.402,29.349 72.831,29.349l0.624,-0c13.189,-0 27.441,-1.875 42.572,-5.758l512.232,-79.57c7.059,-1.08 12.242,-7.109 12.378,-14.201c0.135,-7.109 -4.779,-13.222 -11.787,-14.573l-0.001,0Z"/>
        <path fill="currentcolor" stroke="currentcolor"
              d="M2100.36,1672.09c-24.671,-22.56 -50.761,-33.738 -75.905,-33.738c-39.091,0.134 -71.396,26.004 -92.402,61.618c-11.837,18.102 -18.676,38.552 -18.676,59.203c-0.355,43.027 31.459,82.473 91.406,98.026l483.997,185.547c1.655,0.625 3.479,0.946 5.134,0.946c5.099,0 9.912,-2.584 12.597,-7.143c3.715,-6.113 2.364,-13.982 -3.039,-18.541l-403.112,-345.917l-0,-0.001Z"/>
        <path fill="currentcolor" stroke="currentcolor"
              d="M1833.32,2007.1c-16.093,-52.415 -53.565,-79.129 -94.092,-78.589c-22.121,0 -44.631,7.008 -65.773,19.166c-33.553,17.022 -57.413,48.211 -57.278,85.564c-0,28.554 13.813,58.663 42.216,86.982l327.899,401.388c2.82,3.445 7.058,5.37 11.347,5.37c2.467,0 4.915,-0.574 7.144,-1.925c6.214,-3.394 8.932,-10.858 6.568,-17.562l-177.948,-500.445l-0.084,0.051l0.001,-0Z"/>
        <path fill="currentcolor" stroke="currentcolor"
              d="M1417.63,2058.53c-21.126,-16.717 -48.971,-24.081 -78.641,-24.351c-1.08,0 -3.123,-0.084 -5.369,-0.084c-26.816,0 -51.825,8.173 -70.45,25.161c-18.592,16.971 -29.535,42.621 -29.484,73.236c0,13.577 2.06,28.286 6.484,44.057l85.108,511.254c1.081,7.007 7.194,12.107 14.302,12.191c7.11,0 13.189,-5.049 14.439,-12.057l94.09,-522.245l-0.017,-0.017c2.415,-11.263 3.615,-21.885 3.615,-31.848c0.151,-32.32 -12.935,-58.765 -34.077,-75.296l-0,-0.001Z"/>
        <path fill="currentcolor" stroke="currentcolor"
              d="M1006.58,1935.88c-17.968,-11.431 -38.249,-18.101 -58.58,-18.101c-43.381,-0.355 -83.064,31.813 -97.89,92.486l-180.195,485.973c-2.465,6.62 0.186,14.117 6.35,17.697c2.329,1.3 4.829,1.959 7.379,1.959c4.238,0 8.392,-1.823 11.212,-5.184l341.071,-406.573c22.257,-24.671 33.114,-50.626 33.114,-75.735c-0.135,-39.397 -26.495,-71.785 -62.462,-92.522l0.001,0Z"/>
        <path fill="currentcolor" stroke="currentcolor"
              d="M775.861,1746.58c-0.051,-22.526 -7.413,-45.256 -19.656,-66.566c-17.376,-33.249 -48.43,-56.519 -85.462,-56.469c-28.825,-0.05 -59.204,14.067 -87.353,43.247l-397.827,332.223c-5.54,4.509 -6.84,12.294 -3.311,18.542c2.685,4.61 7.549,7.278 12.683,7.278c1.654,-0 3.343,-0.271 4.997,-0.946l498.301,-183.369c51.892,-16.565 78.218,-53.733 77.627,-93.939l0.001,-0.001Z"/>
        <path fill="currentcolor" stroke="currentcolor"
              d="M535.365,1456.2c10.774,2.145 20.956,3.124 30.514,3.124l0.811,0c32.219,0 58.443,-13.053 74.925,-34.127c16.667,-21.176 23.995,-48.92 24.029,-78.724l-0.051,-0l0.136,-0.44c0.05,-1.57 -0,-2.988 -0,-4.289c0.05,-26.933 -8.14,-52.094 -25.111,-70.686c-16.97,-18.727 -42.452,-29.754 -72.966,-29.619c-13.948,0 -29.078,2.229 -45.357,6.975l-510.188,90.612c-7.058,1.199 -12.107,7.328 -12.107,14.438c0,7.108 5.184,13.137 12.242,14.438l523.125,88.298l-0.002,0Z"/>
        <path fill="currentcolor" stroke="currentcolor"
              d="M592.322,1044.14c24.485,21.632 50.22,32.253 74.874,32.253l0.22,0c39.852,-0.05 72.24,-26.9 92.892,-63.357c10.993,-17.866 17.376,-37.894 17.376,-57.769c0.406,-43.786 -32.304,-83.638 -93.551,-97.89l-487.847,-174.876c-6.704,-2.414 -14.168,0.321 -17.646,6.518c-3.53,6.214 -2.01,14.033 3.444,18.491l410.238,336.629l-0,0.001Z"/>
        <path fill="currentcolor" stroke="currentcolor"
              d="M852.357,703.827c16.752,50.356 52.938,76.395 92.165,76.395l1.436,-0c22.881,-0 45.847,-7.735 67.563,-20.382c32.709,-17.596 55.489,-48.566 55.404,-84.973c0.085,-29.213 -14.438,-59.828 -44.006,-88.012l-336.562,-394.112c-4.644,-5.455 -12.462,-6.755 -18.591,-3.091c-6.08,3.58 -8.765,11.163 -6.215,17.731l188.807,496.442l-0.001,0.002Z"/>
        <circle fill="currentcolor" stroke="currentcolor" cx="1350.12" cy="1350" r="642.123"/>
    </symbol>
    <!-- sun-colored -->
    <symbol id="sun-colored" viewBox="0 0 2700 2700" xmlns="http://www.w3.org/2000/svg" style="fill-rule:evenodd;clip-rule:evenodd;stroke-linejoin:round;stroke-miterlimit:2;">
        <path id="_244689624"
              d="M1269.97,641.635c21.312,16.751 49.19,24.029 79.08,24.029c0.709,0.085 1.519,0.085 2.33,0.085l2.414,-0c26.766,0.05 51.791,-8.174 70.366,-25.111c18.592,-16.97 29.534,-42.536 29.484,-73.101c-0,-13.762 -2.094,-28.639 -6.518,-44.411l-87.539,-511.017c-1.25,-6.975 -7.278,-12.108 -14.388,-12.108c-7.142,-0.084 -13.272,4.999 -14.437,12.057l-91.508,522.736c-2.33,10.942 -3.478,21.31 -3.478,31.358c-0.17,32.405 12.918,58.9 34.194,75.482l0,0.001Z"
              style="fill:#ffc107;"/>
        <path id="_244689672"
              d="M1688.34,761.189c18.136,11.567 38.467,18.237 58.799,18.237l0.81,0c42.891,0 82.034,-32.033 97.182,-91.811l182.423,-485.249c2.466,-6.619 -0.135,-14.116 -6.299,-17.696c-6.078,-3.665 -13.897,-2.28 -18.491,3.123l-342.945,404.919l-0.034,-0.017c-22.475,24.756 -33.604,50.795 -33.468,75.871c0.05,39.362 26.106,71.582 62.023,92.622l0,0.001Z"
              style="fill:#ffc107;"/>
        <path id="_244689840"
              d="M2004.67,860.735c-52.905,15.907 -79.923,53.48 -79.265,94.361c-0,21.987 6.924,44.277 18.947,65.537c16.971,33.772 48.261,57.548 85.648,57.498c28.504,-0 58.478,-13.763 86.678,-41.912l402.604,-326.651c5.488,-4.509 7.008,-12.243 3.53,-18.541c-3.445,-6.164 -10.943,-8.984 -17.647,-6.519l-500.445,176.294l-0.05,-0.067l0,0Z"
              style="fill:#ffc107;"/>
        <path id="_244689888"
              d="M2688.11,1359.96l-521.215,-99.731c-11.804,-2.685 -22.882,-3.968 -33.368,-3.968c-65.502,-0.675 -99.224,53.259 -99.326,111.653c-0.135,1.789 -0.27,4.204 -0.27,6.788c-0,26.68 8.257,51.605 25.33,70.011c16.971,18.456 42.402,29.349 72.831,29.349l0.624,-0c13.189,-0 27.441,-1.875 42.572,-5.758l512.232,-79.57c7.059,-1.08 12.242,-7.109 12.378,-14.201c0.135,-7.109 -4.779,-13.222 -11.787,-14.573l-0.001,0Z"
              style="fill:#ffc107;"/>
        <path id="_244690056"
              d="M2100.36,1672.09c-24.671,-22.56 -50.761,-33.738 -75.905,-33.738c-39.091,0.134 -71.396,26.004 -92.402,61.618c-11.837,18.102 -18.676,38.552 -18.676,59.203c-0.355,43.027 31.459,82.473 91.406,98.026l483.997,185.547c1.655,0.625 3.479,0.946 5.134,0.946c5.099,0 9.912,-2.584 12.597,-7.143c3.715,-6.113 2.364,-13.982 -3.039,-18.541l-403.112,-345.917l-0,-0.001Z"
              style="fill:#ffc107;"/>
        <path id="_244690104"
              d="M1833.32,2007.1c-16.093,-52.415 -53.565,-79.129 -94.092,-78.589c-22.121,0 -44.631,7.008 -65.773,19.166c-33.553,17.022 -57.413,48.211 -57.278,85.564c-0,28.554 13.813,58.663 42.216,86.982l327.899,401.388c2.82,3.445 7.058,5.37 11.347,5.37c2.467,0 4.915,-0.574 7.144,-1.925c6.214,-3.394 8.932,-10.858 6.568,-17.562l-177.948,-500.445l-0.084,0.051l0.001,-0Z"
              style="fill:#ffc107;"/>
        <path id="_244690272"
              d="M1417.63,2058.53c-21.126,-16.717 -48.971,-24.081 -78.641,-24.351c-1.08,0 -3.123,-0.084 -5.369,-0.084c-26.816,0 -51.825,8.173 -70.45,25.161c-18.592,16.971 -29.535,42.621 -29.484,73.236c0,13.577 2.06,28.286 6.484,44.057l85.108,511.254c1.081,7.007 7.194,12.107 14.302,12.191c7.11,0 13.189,-5.049 14.439,-12.057l94.09,-522.245l-0.017,-0.017c2.415,-11.263 3.615,-21.885 3.615,-31.848c0.151,-32.32 -12.935,-58.765 -34.077,-75.296l-0,-0.001Z"
              style="fill:#ffc107;"/>
        <path id="_244690320"
              d="M1006.58,1935.88c-17.968,-11.431 -38.249,-18.101 -58.58,-18.101c-43.381,-0.355 -83.064,31.813 -97.89,92.486l-180.195,485.973c-2.465,6.62 0.186,14.117 6.35,17.697c2.329,1.3 4.829,1.959 7.379,1.959c4.238,0 8.392,-1.823 11.212,-5.184l341.071,-406.573c22.257,-24.671 33.114,-50.626 33.114,-75.735c-0.135,-39.397 -26.495,-71.785 -62.462,-92.522l0.001,0Z"
              style="fill:#ffc107;"/>
        <path id="_244690488"
              d="M775.861,1746.58c-0.051,-22.526 -7.413,-45.256 -19.656,-66.566c-17.376,-33.249 -48.43,-56.519 -85.462,-56.469c-28.825,-0.05 -59.204,14.067 -87.353,43.247l-397.827,332.223c-5.54,4.509 -6.84,12.294 -3.311,18.542c2.685,4.61 7.549,7.278 12.683,7.278c1.654,-0 3.343,-0.271 4.997,-0.946l498.301,-183.369c51.892,-16.565 78.218,-53.733 77.627,-93.939l0.001,-0.001Z"
              style="fill:#ffc107;"/>
        <path id="_244690536"
              d="M535.365,1456.2c10.774,2.145 20.956,3.124 30.514,3.124l0.811,0c32.219,0 58.443,-13.053 74.925,-34.127c16.667,-21.176 23.995,-48.92 24.029,-78.724l-0.051,-0l0.136,-0.44c0.05,-1.57 -0,-2.988 -0,-4.289c0.05,-26.933 -8.14,-52.094 -25.111,-70.686c-16.97,-18.727 -42.452,-29.754 -72.966,-29.619c-13.948,0 -29.078,2.229 -45.357,6.975l-510.188,90.612c-7.058,1.199 -12.107,7.328 -12.107,14.438c0,7.108 5.184,13.137 12.242,14.438l523.125,88.298l-0.002,0Z"
              style="fill:#ffc107;"/>
        <path id="_244690752"
              d="M592.322,1044.14c24.485,21.632 50.22,32.253 74.874,32.253l0.22,0c39.852,-0.05 72.24,-26.9 92.892,-63.357c10.993,-17.866 17.376,-37.894 17.376,-57.769c0.406,-43.786 -32.304,-83.638 -93.551,-97.89l-487.847,-174.876c-6.704,-2.414 -14.168,0.321 -17.646,6.518c-3.53,6.214 -2.01,14.033 3.444,18.491l410.238,336.629l-0,0.001Z"
              style="fill:#ffc107;"/>
        <path id="_244690824"
              d="M852.357,703.827c16.752,50.356 52.938,76.395 92.165,76.395l1.436,-0c22.881,-0 45.847,-7.735 67.563,-20.382c32.709,-17.596 55.489,-48.566 55.404,-84.973c0.085,-29.213 -14.438,-59.828 -44.006,-88.012l-336.562,-394.112c-4.644,-5.455 -12.462,-6.755 -18.591,-3.091c-6.08,3.58 -8.765,11.163 -6.215,17.731l188.807,496.442l-0.001,0.002Z"
              style="fill:#ffc107;"/>
        <circle id="_244690800" cx="1350.12" cy="1350" r="642.123" style="fill:#ffc107;"/>
    </symbol>

    <!-- moving-machine-colored -->
    <symbol id="moving-machine-colored" viewBox="0 0 2700 2205" version="1.1" xmlns="http://www.w3.org/2000/svg" xml:space="preserve"
            style="fill-rule:evenodd;clip-rule:evenodd;stroke-linejoin:round;stroke-miterlimit:2;">

        <path id="_244114912"
              d="M2193.82,1277.16c-10.762,-59.223 -28.179,-117.491 -52.748,-173.532c-27.488,-59.956 -107.531,-105.193 -167.085,-105.193l-686.991,-0c-59.582,-0 -139.64,45.236 -167.086,105.193c-26.422,60.287 -44.766,123.246 -55.266,187.144c198.239,-40.077 399.621,-60.357 602.328,-60.357c177.765,0 353.76,15.743 526.851,46.745l-0.003,-0Z"
              style="fill:#755941;"/>
        <path id="_244114840"
              d="M2190.38,1784.69c-114.973,-0 -208.199,93.226 -208.199,208.089c-0,114.974 93.226,208.2 208.199,208.2c114.822,-0 207.979,-93.226 207.979,-208.2c-0,-114.863 -93.157,-208.089 -207.979,-208.089Z"
              style="fill:#755941;"/>
        <path id="_244114768"
              d="M1298.98,1935.66c2.448,18.592 3.915,37.669 3.915,57.134c0,19.547 -1.467,38.61 -3.915,57.065l653.499,-0c-2.49,-18.455 -3.957,-37.518 -3.957,-57.065c-0,-19.479 1.467,-38.542 3.957,-57.134l-653.499,-0Z"
              style="fill:#6c757d;"/>
        <path id="_244114696"
              d="M2611.78,1410.51c-636.952,-219.171 -1332.29,-208.519 -1969.6,22.106c-83.155,31.583 -112.441,117.311 -66.914,186.052c59.956,94.983 119.829,199.443 179.757,294.358c25.994,0.18 51.905,0.18 77.926,0.332c32.801,-94.471 122.514,-162.41 228.107,-162.41c105.995,0 195.791,68.257 228.468,163.13c224.261,-0.512 448.701,-1.577 673.044,-2.048c33.23,-93.808 122.513,-161.082 227.705,-161.082c105.373,0 194.795,67.606 227.887,161.677c26.934,0.152 53.841,0.221 80.665,0.401c59.845,-104.944 119.732,-200.467 179.646,-305.437c45.652,-76.294 16.477,-167.072 -66.693,-197.077l0,-0.002Z"
              style="fill:#606c38;"/>
        <path id="_244114624"
              d="M1061.03,1781c-116.84,-0 -211.782,94.914 -211.782,211.783c-0,116.979 94.942,211.921 211.782,211.921c117.133,0 211.922,-94.914 211.922,-211.921c0,-116.883 -94.804,-211.783 -211.922,-211.783Z"
              style="fill:#755941;"/>
        <path id="_244114576"
              d="M777.728,1366.76l-130.121,-1007.62c-2.892,-86.822 -41.903,-235.163 -162.106,-281.396l0,85.908c0,9.255 -1.536,18.04 -4.288,26.354c63.428,54.906 67.675,172.867 67.675,174.445l0.442,5.008l132.654,1028.26c31.873,-10.791 63.718,-21.153 95.744,-30.961l0,0Z"
              style="fill:#6c757d;"/>
        <path id="_244114552"
              d="M422.611,0l-371.329,0c-28.289,0 -51.282,22.951 -51.282,51.282l0,112.373c0,28.374 22.993,51.213 51.282,51.213l371.329,-0.013c28.291,-0 51.213,-22.882 51.213,-51.214l0,-112.372c0,-28.318 -22.922,-51.269 -51.213,-51.269l-0,0Z"
              style="fill:#606c38;"/>

</symbol>

    <!-- bug -->
    <symbol id="bug" viewBox="0 0 333 275" xmlns="http://www.w3.org/2000/svg" style="fill-rule:evenodd;clip-rule:evenodd;stroke-linejoin:round;stroke-miterlimit:2;">
        <path d="M202.142,69.45c3.932,-7.729 6.772,-15.678 8.301,-24.069c0.655,-3.092 1.092,-6.404 1.092,-9.717c0.218,-4.416 -2.185,-7.287 -6.116,-8.612c-0.656,-0.22 -1.311,-0.22 -1.966,-0.22c-0.437,-0 -0.874,0.441 -0.874,0.883c-0.218,1.546 -0.437,3.091 -0.655,4.637c-0.219,3.533 -2.84,5.741 -6.335,5.741c-3.495,-0.22 -5.679,-2.429 -5.679,-5.962c0,-4.195 0.874,-8.17 3.058,-11.703c2.84,-5.079 7.208,-7.067 12.669,-5.963c5.898,1.105 10.485,4.417 14.416,9.054c6.772,7.95 6.335,16.783 3.495,25.836c-0.873,3.092 -2.184,5.963 -3.495,9.054c-2.402,5.521 -5.023,10.82 -7.426,16.341c-0.219,0.221 -0.219,0.662 -0.219,0.883c2.185,2.208 4.369,4.417 6.553,6.404c0.219,0.221 0.874,0.221 1.311,-0c3.932,-1.987 7.863,-4.196 11.795,-6.404c5.679,-3.091 11.577,-5.741 17.911,-7.066c11.14,-2.208 21.406,2.208 26.212,11.703c5.024,9.275 1.092,20.316 -8.082,23.849c-1.747,0.663 -3.713,0.883 -5.679,0.883c-3.277,0 -5.461,-2.429 -5.679,-5.741c-0.219,-3.533 1.966,-5.962 5.242,-6.183l0.874,0c2.184,-0.221 3.495,-1.546 3.495,-3.754c-0,-3.754 -2.84,-7.287 -6.99,-8.612c-2.621,-0.883 -5.024,-0.442 -7.645,0.221c-6.99,1.766 -13.324,5.079 -19.659,8.612c-1.966,1.104 -3.932,2.208 -5.897,3.312c2.839,5.521 4.805,11.262 5.897,17.224c0.437,3.533 0.655,7.067 1.092,10.6c0,0.883 0.219,1.104 1.092,1.325c6.553,1.766 13.325,3.533 19.878,5.299c7.426,1.988 10.484,9.717 6.771,17.004c-2.621,5.299 -7.864,7.508 -13.543,6.183c-5.242,-1.325 -10.266,-2.871 -15.508,-4.417c-0.656,-0.221 -1.311,-0.221 -2.185,-0.441c-5.242,17.665 -14.634,32.681 -27.085,46.151c1.966,2.65 3.932,4.858 5.898,7.288c1.966,2.649 3.931,5.52 5.897,8.17c3.495,4.416 2.403,11.041 -1.092,15.016c-3.713,4.195 -9.392,5.079 -14.198,2.208c-1.747,-1.104 -3.495,-2.871 -4.805,-4.637c-3.058,-3.754 -5.898,-7.729 -8.737,-11.483c-1.529,0.883 -2.622,1.546 -3.932,2.208c-8.082,4.858 -15.945,9.496 -24.027,14.354c-0.874,0.441 -1.311,1.104 -1.529,1.987c-1.966,8.17 -4.151,16.562 -6.335,24.732c-1.31,4.417 -4.15,7.287 -8.737,8.171c-4.587,0.883 -8.956,-0.442 -12.232,-3.975c-2.84,-3.092 -3.058,-6.625 -1.966,-10.6c1.529,-5.962 3.276,-11.703 4.805,-17.665l0,-0.442c-5.46,-0.883 -10.921,-1.546 -16.163,-2.429c-5.461,-1.104 -10.267,-3.975 -15.29,-6.625c28.832,-35.994 57.665,-71.767 86.279,-107.761l-0.218,-0.221c-34.512,30.474 -69.242,60.947 -103.754,91.641c-7.208,-11.041 -10.703,-23.407 -11.14,-36.656c-3.495,0.883 -6.771,1.987 -10.048,2.871c-2.621,0.883 -5.242,1.545 -7.863,2.65c-6.99,2.87 -13.106,-1.767 -15.072,-6.184c-2.621,-5.52 -0.655,-12.145 5.024,-15.457c2.839,-1.546 5.898,-2.65 8.956,-3.533c7.208,-1.988 14.197,-3.975 21.406,-5.742c0.436,-0.22 1.092,-0.662 1.092,-0.883c0.873,-5.3 3.276,-9.716 5.897,-14.353c2.403,-3.975 4.806,-7.95 7.427,-12.145c-0.437,-0.221 -0.874,-0.663 -1.529,-0.884c-5.024,-2.87 -9.829,-5.741 -14.853,-8.391c-3.932,-2.208 -6.772,-5.079 -6.772,-9.716c0,-5.079 2.403,-9.054 6.772,-11.483c3.495,-1.987 7.208,-1.987 10.703,-0.221c7.208,3.975 14.198,7.95 21.406,12.146c1.092,0.662 1.747,0.662 2.84,-0c5.897,-4.417 11.795,-8.833 17.911,-12.808c7.426,-4.858 15.29,-8.612 23.59,-11.483c0.437,-0.221 0.874,-0.221 1.092,-0.442c-0.873,-3.974 -1.747,-7.949 -2.402,-11.924c-0.656,-4.196 -1.093,-8.391 -1.311,-12.808c-0.437,-8.832 6.99,-13.028 13.979,-11.703c6.335,1.104 9.83,5.52 9.83,11.703c-0,6.625 1.529,13.029 3.058,19.654c0.218,1.104 0.874,0.662 1.529,0.662c8.082,-0.221 16.164,1.104 23.809,3.754c1.529,0 2.839,0.442 4.368,1.104Zm-37.133,0c0,-0.221 -0.218,-0.221 -0.218,-0.442c-0.874,0.663 -1.966,1.105 -2.621,1.988c-0.874,1.104 -0.437,2.208 0.218,3.312c11.577,19.433 27.959,33.344 49.147,41.515c4.15,1.545 8.518,2.65 12.887,3.754c1.748,0.441 3.277,-0.663 3.713,-2.429c0.437,-1.767 -0.436,-2.871 -2.402,-3.313c-1.092,-0.221 -2.185,-0.441 -3.277,-0.883c-16.382,-4.416 -30.362,-12.808 -42.157,-24.953c-4.805,-5.079 -8.955,-10.599 -12.45,-16.782c-0.655,-1.104 -1.529,-1.767 -2.84,-1.767Zm-34.075,34.227c3.495,0 5.898,-2.429 5.898,-5.962c-0,-3.533 -2.403,-6.183 -5.898,-5.962c-3.276,0 -5.679,2.429 -5.679,5.962c0,3.533 2.403,5.962 5.679,5.962Zm37.352,104.228c3.495,0 5.679,-2.429 5.679,-6.183c-0,-3.533 -2.403,-5.962 -5.679,-5.962c-3.277,0 -5.898,2.65 -5.898,5.962c0,3.534 2.403,6.183 5.898,6.183Zm-47.4,-79.716c0,3.533 2.403,6.183 5.68,6.183c3.276,-0 5.897,-2.429 5.897,-6.183c0,-3.533 -2.403,-5.962 -5.679,-5.962c-3.495,-0 -5.679,2.208 -5.898,5.962Zm-26.648,-5.742c-3.495,0 -5.898,2.429 -5.898,5.963c0,3.533 2.403,5.962 5.68,5.962c3.494,-0 5.679,-2.429 5.679,-5.962c0.437,-3.534 -1.966,-5.963 -5.461,-5.963Zm96.764,6.404c-3.495,0 -5.679,2.429 -5.679,6.183c0,3.533 2.403,5.962 5.679,5.962c3.277,0 5.898,-2.649 5.898,-6.183c-0.218,-3.533 -2.621,-5.962 -5.898,-5.962Zm6.553,40.852c3.495,0 5.898,-2.65 5.679,-6.183c0,-3.533 -2.402,-5.962 -5.897,-5.962c-3.277,0 -5.679,2.429 -5.679,5.962c0.218,3.754 2.402,6.183 5.897,6.183Zm-53.733,33.344c-0,-3.754 -2.185,-6.183 -5.68,-6.183c-3.495,0 -5.679,2.429 -5.897,5.962c-0,3.534 2.184,5.963 5.679,6.184c3.495,-0 5.898,-2.209 5.898,-5.963Zm-49.802,-50.126c-3.277,-0 -5.68,2.429 -5.68,5.962c0,3.533 2.403,6.183 5.68,6.183c3.276,-0 5.679,-2.429 5.679,-5.962c-0,-3.754 -2.403,-6.183 -5.679,-6.183Zm73.61,22.082c3.495,-0 5.898,-2.429 5.68,-5.962c-0,-3.533 -2.403,-5.962 -5.68,-5.962c-3.276,-0 -5.679,2.429 -5.897,5.962c-0,3.533 2.402,5.962 5.897,5.962Zm-7.863,-65.363c3.276,0.221 5.898,-2.209 5.898,-5.742c0.218,-3.533 -2.185,-6.183 -5.68,-6.404c-3.276,-0.22 -5.897,2.209 -5.897,5.742c-0.219,3.533 2.184,6.183 5.679,6.404Z"
              style="fill:#cc330d;fill-rule:nonzero;"/>
    </symbol>
    <!-- flower with pot -->
    <symbol id="flower-with-pot-colored" viewBox="0 0 2700 2205" xmlns="http://www.w3.org/2000/svg"
            style="fill-rule:evenodd;clip-rule:evenodd;stroke-linejoin:round;stroke-miterlimit:2;">
        <path id="_244115584"
              d="M864.163,1336.84c0,254.973 54.921,487.903 145.724,665.424l878.482,-0.017c90.717,-177.47 145.637,-410.4 145.637,-665.425l-1169.84,0.018l0,-0Zm832.671,590.945c67.525,-147.984 107.911,-327.609 116.43,-516.571l62.501,-0c-8.467,189.014 -48.906,368.588 -116.291,516.571l-62.64,-0Z"
              style="fill:#755941;"/>
        <path id="_244115512"
              d="M961.035,2026.78l19.038,122.08c-0,13.943 11.231,25.261 25.208,25.261l866.348,-0.018c14.082,0 25.208,-11.317 25.208,-25.26l21.107,-122.08l-956.907,0.017l-0.002,0Z"
              style="fill:#755941;"/>
        <path id="_244115464"
              d="M2078.66,546.62c2.573,-148.384 -110.988,-270.707 -253.723,-273.141c-43.376,-0.783 -84.405,9.666 -120.515,28.616c2.156,-148.123 -97.375,-268.447 -268.952,-271.437c-193.464,-3.408 -266.379,105.477 -268.865,253.914c-49.774,-23.088 -72.497,-21.854 -128.895,-22.81c-142.786,-2.434 -260.625,115.873 -263.197,264.31c-2.295,129.851 84.354,239.657 201.652,266.796c-15.038,33.449 -23.835,70.463 -24.565,109.562c-2.625,148.488 111.127,270.794 253.826,273.332c96.645,1.704 181.748,-52.016 227.505,-132.841c42.96,82.337 126.131,138.961 222.777,140.717c142.734,2.434 260.623,-115.873 263.11,-264.31c0.782,-42.785 -8.241,-83.398 -24.74,-119.681c105.147,-32.789 182.512,-133.016 184.579,-253.027l0.003,-0Zm-634.182,387.397c-176.914,-3.076 -317.995,-138.908 -315.18,-303.409c2.903,-164.535 148.627,-295.36 325.54,-292.284c177,3.078 318.031,138.962 315.283,303.41c-2.92,164.501 -148.645,295.359 -325.645,292.283l0.002,0Z"
              style="fill:#f77f00;"/>
        <path id="_244115392" d="M1434.28,1082.92c-38.092,0 -46.958,241.308 -46.958,241.308l87.222,-0.696c-0.017,0 -1.947,-240.613 -40.264,-240.613l-0,0.001Z"
              style="fill:#606c38;"/>
    </symbol>

    <!-- wheel-barrow-colored -->
    <symbol id="wheel-barrow-colored" viewBox="0 0 2700 1982" xmlns="http://www.w3.org/2000/svg" xml:space="preserve"
            style="fill-rule:evenodd;clip-rule:evenodd;stroke-linejoin:round;stroke-miterlimit:2;">
    <path id="_6313160"
          d="M2259.03,1304.38c-111.435,-14.923 -217.371,29.904 -288.023,110.407l-107.935,-51.875c-20.019,-9.578 -42.332,-7.473 -58.035,3.287l-59.974,-28.13c-12.168,-15.42 -78.752,-17.891 -92.421,1.501c0,0 -182.713,75.926 -324.655,130.745c-42.982,-97.388 -93.236,-197.601 -155.989,-357.977c-76.813,-79.497 -802.793,-812.561 -807.701,-813.342l-330.603,-50.869c-13.268,-2.034 -27.753,20.303 -32.293,49.864c-4.565,29.538 2.412,55.162 15.679,57.196l295.495,45.489c-0,-0 713.259,730.843 772.382,788.438c39.86,100.615 168.949,387.821 168.949,387.821c11.08,24.596 39.447,25.873 58.627,17.277l388.91,-156.653l58.567,27.564c3.288,16.14 14.793,31.228 32.127,39.541l104.872,50.313c-3.594,13.989 -6.763,28.226 -8.726,42.865c-24.867,186.248 100.58,356.688 280.348,380.846c179.828,24.087 345.775,-107.343 370.701,-293.558c24.926,-186.129 -100.568,-356.663 -280.301,-380.751l-0.001,0.001Z"
          style="fill:#606c38;"/>
        <path id="_6311264"
              d="M2631.47,571.275l-1495.75,-221.781c-68.796,-10.265 -131.773,30.507 -139.814,90.599l-44.827,334.541c-8.076,60.128 36.443,132.648 98.83,161.311l857.979,374.864c62.008,29.159 148.635,15.49 192.221,-30.413l576.814,-606.6c43.751,-45.727 23.354,-91.783 -45.453,-102.52l0,-0.001Z"
              style="fill:#6c757d;"/>
        <path id="_6309728"
              d="M2591.24,540.837c-11.789,-59.407 -39.387,-132.116 -45.276,-150.137c-22.656,-78.929 52.619,-82.653 -47.085,-144.224c-68.701,-43.704 -181.022,-10.477 -248.942,-61.003c-68.796,-43.739 33.57,-64.515 -85.942,-101.183c-39.86,-12.262 -86.945,29.691 -126.771,17.453c-31.725,-11.139 -33.475,-59.596 -57.03,-69.706c-150.266,-54.629 -217.276,-49.781 -253.541,97.021c-136.656,-94.23 -157.551,61.665 -266.243,67.767c-57.904,-0.911 -57.904,-62.943 -106.846,-69.482c-124.549,-5.131 -281.662,101.869 -343.553,207.865c24.596,-14.332 55.47,-20.646 87.727,-15.798l1493.5,221.427l-0.001,0Z"
              style="fill:#755941;"/>
    </symbol>
    <!-- tree-color -->
    <symbol id="tree-colored" viewBox="0 0 2700 2287" xmlns="http://www.w3.org/2000/svg" xml:space="preserve"
            style="fill-rule:evenodd;clip-rule:evenodd;stroke-linejoin:round;stroke-miterlimit:2;">
        <path id="_6311096" d="M796.878,974.513c-102.205,221.351 -443.048,243.86 -560.059,91.229c127.525,-186.7 431.091,-237.803 560.059,-91.229Z" style="fill:#606c38;"/>
        <path id="_6308216" d="M1010.26,1481.04c-173.47,157.656 -494.15,27.466 -546.274,-164.243c184.208,-114.732 480.855,-27.255 546.274,164.243Z" style="fill:#606c38;"/>
        <path id="_6307424" d="M546.338,606.245c-173.616,157.615 -494.217,27.492 -546.338,-164.152c184.207,-114.758 480.868,-27.321 546.338,164.152Z" style="fill:#606c38;"/>
        <path id="_6311168" d="M655.209,617.22c-157.205,-177.406 -68.64,-542.693 99.182,-617.22c119.545,193.036 67.249,528.1 -99.182,617.22Z" style="fill:#606c38;"/>
        <path id="_6309440" d="M1188.78,309.346c70.562,226.68 -174.809,475.458 -366.665,447.156c-27.904,-219.389 169.586,-462.904 366.665,-447.156Z" style="fill:#606c38;"/>
        <path id="_6309512" d="M1337.91,823.657c-179.01,-151.027 -104.525,-496.748 71.557,-579.903c139.415,168.671 102.232,483.239 -71.557,579.903Z" style="fill:#606c38;"/>
        <path id="_6309560" d="M2047.66,1132.24c25.041,-189.192 297.11,-290.097 432.668,-205.921c-54.747,169.798 -288.826,282.634 -432.668,205.921Z" style="fill:#606c38;"/>
        <path id="_6309632" d="M2243.97,710.662c-18.453,-237.125 275.503,-422.142 456.025,-349.749c-21.395,220.145 -267.68,411.125 -456.025,349.749Z" style="fill:#606c38;"/>
        <path id="_6309680" d="M1954.65,951.367c-176.214,-154.606 -95.219,-498.669 82.321,-578.326c136.286,171.296 93.217,485.136 -82.321,578.326Z" style="fill:#606c38;"/>
        <path id="_6310568" d="M1582.98,1240.51c-176.214,-154.54 -95.298,-498.669 82.347,-578.391c136.233,171.362 93.231,485.307 -82.347,578.391Z" style="fill:#606c38;"/>
        <path id="_6309872" d="M1730.67,1539.09c25.81,-236.437 348.557,-360.659 512.456,-254.425c-61.681,211.992 -338.906,351.366 -512.456,254.425Z" style="fill:#606c38;"/>
        <path id="_6310640"
              d="M557.525,617.989c350.028,153.905 612.594,688.113 773.271,1078.65c243.41,-86.775 76.21,-593.757 -202.832,-865.334c211.807,86.986 381.287,356.735 432.137,583.058c218.223,-295.468 482.922,-496.046 754.077,-661.349c-237.272,191.432 -466.02,452.486 -635.499,713.5c-67.792,104.418 -127.113,252.357 -93.231,382.905c42.434,156.634 254.255,191.392 279.639,348c-84.666,88.697 -262.591,69.582 -432.07,87.014c-144.041,8.735 -381.325,-17.432 -516.91,-52.256c180.694,-212.443 152.259,-780.07 50.161,-1017.02c-96.438,-223.525 -244.098,-440.025 -408.74,-597.163l-0.003,-0.005Z"
              style="fill:#755941;"/>
    </symbol>
    <!-- secateurs -->
    <symbol id="secateurs" viewBox="0 0 4500 4500" xmlns="http://www.w3.org/2000/svg" xml:space="preserve"
            style="fill-rule:evenodd;clip-rule:evenodd;stroke-linejoin:round;stroke-miterlimit:2;">

        <path id="_244119424"
              d="M2055.25,2767.94c39.528,31.266 89.828,54.01 132.733,68.644c38.583,-68.72 104.847,-148.237 170.113,-211.686c64.858,-63.553 144.118,-124.906 212.838,-161.517c-20.364,-47.997 -33.848,-77.035 -65.649,-130.635c-84.481,43.929 -176.739,106.355 -254.261,182.085c-77.803,75.629 -150.079,170.471 -195.774,253.109Z"
              style="fill:#6c757d;"/>
        <path id="_244119352"
              d="M4346.93,3903.96c-153.993,22.822 -506.677,-67.492 -941.797,-566.803c-59.357,143.913 -179.042,248.299 -322.495,294.862c430.336,445.687 981.069,564.704 1323.8,255.54c-42.727,-12.331 -209.769,-43.723 -408.178,-186.972c-308.193,-222.715 -482.17,-440.414 -563.604,-567.008c0.281,27.811 -2.379,84.199 -5.962,109.938c29.627,92.488 461.166,623.215 918.235,660.443l-0.002,-0Z"
              style="fill:#6c757d;"/>
        <path id="_244119280"
              d="M2386.94,2971.57c-115.285,-52.193 -263.395,-127.131 -401.091,-209.641l-250.269,472.778c240.853,76.37 495.651,117.305 682.625,133.832c-12.588,-37.916 -46.922,-106.687 -53.754,-149.67c-16.63,-104.205 -6.805,-176.354 22.49,-247.3l-0.001,0.001Z"
              style="fill:#6c757d;"/>
        <path id="_244119208"
              d="M3250.63,2782.91c-56.67,-58.205 -236.171,-562.863 -313.207,-828.228l-478.867,238.27c102.364,180.679 176.815,343.883 231.106,484.215c-51.783,23.231 -100.317,55.315 -143.248,97.146c-196.773,192.192 -200.841,507.162 -8.725,704.218c192.192,196.925 507.292,200.712 704.269,8.725c196.796,-192.167 200.737,-507.343 8.672,-704.344l0,-0.002Zm-569.566,513.715c-94.894,-97.273 -92.95,-252.776 4.195,-347.67c97.35,-94.56 252.7,-92.667 347.542,4.401c94.715,96.939 92.744,252.622 -4.4,347.388c-97.069,94.715 -252.7,92.975 -347.337,-4.119l-0,0Z"
              style="fill:#6c757d;"/>
        <path id="_244119136"
              d="M3031.57,2996.28c-73.863,-75.885 -195.569,-77.496 -271.915,-3.454c-75.884,74.4 -77.443,196.184 -3.376,272.119c74.4,76.37 196.183,77.649 271.991,3.454c76.293,-74.12 77.905,-195.979 3.3,-272.119l-0,-0Z"
              style="fill:#f77f00;"/>
        <path id="_244119064"
              d="M2261.7,1973.43c-47.05,23.615 -61.813,89.751 -32.902,147.777c29.166,58.078 90.775,85.965 138.03,62.606l496.111,-247.685l42.854,-19.905c-0.076,-0.487 -0.282,-1.075 -0.333,-1.484l83.329,-41.702c46.922,-23.283 61.608,-89.419 32.57,-147.572c-28.911,-58.078 -90.57,-86.17 -137.748,-62.683l-47.384,23.895c-145.729,-426.598 -411.172,-896.792 -886.509,-1339.31c-271.453,-252.573 -771.967,239.958 -506.757,503.504c397.227,394.388 674.488,768.513 868.985,1097.51l-50.249,25.046l0.003,0.001Z"
              style="fill:#f77f00;"/>
        <path id="_244119016"
              d="M1664.86,3193.88c0.487,0.127 1.076,0.537 1.561,0.614l22.259,-42.446l275.368,-480.606c26.07,-45.976 1.637,-108.991 -54.906,-141.405c-56.311,-32.16 -122.985,-21.262 -149.056,24.432l-27.963,49.072c-317.608,-212.967 -675.563,-511.005 -1046.8,-929.621c-248.018,-279.972 -768.178,191.835 -531.523,477.027c415.086,499.644 869.52,791.206 1287.12,960.831l-26.327,46.154c-26.071,45.567 -1.637,108.71 54.828,140.997c56.26,32.212 123.19,21.261 149.184,-24.228l46.257,-80.822l0.001,0.001Z"
              style="fill:#f77f00;"/>
        <path id="_244118992"
              d="M4263.19,4012.75c-351.533,182.163 -847.978,17.601 -1214.68,-364.248c-75.346,16.374 -163.946,18.829 -240.368,12.05c330.81,590.801 943.616,728.831 1455.05,352.199l0.001,-0.001Z"
              style="fill:#6c757d;"/>
</symbol>
    <!-- fruit-tree -->
    <symbol id="fruit-tree" viewBox="0 0 4500 4500" xmlns="http://www.w3.org/2000/svg" xml:space="preserve"
            style="fill-rule:evenodd;clip-rule:evenodd;stroke-linejoin:round;stroke-miterlimit:2;">
        <path id="_244702536"
              d="M2878.43,2761.26c-74.174,62.095 -145.074,128.023 -207.525,201.864c-87.927,104.442 -141.418,222.323 -203.445,342.434c-129.271,250.852 -174.783,-119.131 -174.316,-216.552c0.112,-6.196 1.471,-29.553 3.588,-62.272c-50.236,10.899 -101.076,18.989 -152.673,23.893c-12.681,131.567 -41.634,393.452 -61.449,379.721c-34.256,-23.825 -63.52,-128.088 -83.2,-166.18c-30.558,-59.732 -61.85,-119.352 -96.308,-177.323c-7.911,-13.507 -16.627,-26.657 -24.828,-39.807c-44.821,-5.238 -89.175,-12.392 -132.86,-22.221c29.243,43.528 54.071,87.859 70.408,132.502c180.513,490.585 106.56,943.768 27.37,1211.14c104.665,-10.074 211.047,-15.089 314.441,-15.089c147.548,-0 301.046,10.141 447.99,31.025c-42.458,-93.521 -77.674,-191.075 -102.369,-281.23c-122.607,-443.512 110.683,-986.517 449.818,-1317.87c-25.097,-6.91 -49.925,-14.933 -74.643,-24.027l0.001,0Z"
              style="fill:#755941;"/>
        <path id="_244702512"
              d="M3737.47,1019.75c-94.345,-415.985 -465.865,-726.637 -910.337,-726.637c-86.565,-0 -170.08,11.968 -249.381,34.034c-161.276,-132.103 -367.15,-211.537 -591.527,-211.537c-247.265,-0 -471.885,96.351 -638.822,252.992c-376.179,79.078 -668.732,384.381 -729.178,766.846c-173.021,169.412 -280.696,405.601 -280.696,667.081c0,515.458 417.814,933.449 933.449,933.449c17.452,-0 34.792,-0.713 52.132,-1.649c195.31,147.368 438.161,234.471 701.452,234.471c312.478,-0 595.718,-122.785 805.069,-322.62c121.136,57.614 256.513,89.82 399.582,89.82c515.412,0 933.268,-417.991 933.268,-933.449c0.044,-328.036 -169.256,-616.332 -425.014,-782.8l0.003,-0.001Zm-2286.16,943.097c-129.673,-0 -234.65,-105.155 -234.65,-234.693c0,-129.673 104.977,-234.827 234.65,-234.827c129.671,-0 234.76,105.154 234.76,234.827c0.045,129.628 -105.089,234.693 -234.76,234.693Zm1267.68,-704.216c-121.002,-0 -219.026,-98.246 -219.026,-219.203c0,-120.958 98.001,-219.071 219.026,-219.071c121.069,0 219.136,98.134 219.136,219.071c-0,120.957 -98.067,219.203 -219.136,219.203Zm375.709,1095.55c-120.958,0 -219.136,-98.134 -219.136,-219.07c-0,-121.069 98.178,-219.136 219.136,-219.136c120.958,0 219.137,98.067 219.137,219.136c0,120.959 -98.201,219.07 -219.137,219.07Z"
              style="fill:#606c38;"/>
        <circle cx="1454.81" cy="1731.48" r="242.316" style="fill:#f77f00;"/>
        <circle cx="2695.81" cy="1039.5" r="242.316" style="fill:#f77f00;"/>
        <circle cx="3094.7" cy="2135.08" r="242.316" style="fill:#f77f00;"/>
    </symbol>

    <symbol id="lady-bug" width="100%" height="100%" viewBox="0 0 4167 4167" xmlns="http://www.w3.org/2000/svg" xml:space="preserve"
            style="fill-rule:evenodd;clip-rule:evenodd;stroke-linejoin:round;stroke-miterlimit:2;">
    <ellipse cx="1767.97" cy="2722.84" rx="1137.61" ry="1094.93" style="fill:#043545;"/>
        <path d="M2165,1596.67c45,-70.417 70.833,-153.334 70.833,-242.5c0,-193.334 -122.5,-358.75 -295.833,-425.834c-15,-42.5 -21.25,-87.5 -17.917,-133.75c6.25,-90.833 48.334,-174.166 118.334,-234.166c112.083,-95.834 282.5,-84.584 380.416,25c36.25,40.833 54.167,92.916 50.417,147.083c-3.75,54.167 -28.75,103.333 -70.417,139.167c-31.666,27.083 -71.666,40.416 -113.333,37.5c-35.833,-2.5 -68.75,-16.25 -94.583,-39.584c-22.084,-19.583 -41.667,-59.166 -41.25,-88.333c-0,-22.5 6.666,-43.333 18.75,-61.667c10.833,-16.25 8.75,-37.5 -4.167,-52.083c-19.583,-22.083 -55,-19.167 -71.25,5c-18.75,28.333 -29.583,60.833 -32.083,95.417c-3.75,53.75 14.166,105.416 50.416,145.833c43.334,48.333 102.917,77.5 168.334,81.667c65.416,4.583 128.75,-16.667 178.333,-58.75c122.917,-105.417 135.417,-288.75 27.917,-409.167c-130,-145.833 -357.084,-160.833 -506.25,-33.333c-87.917,75.416 -140.834,179.583 -148.75,293.75c-2.5,38.333 -0,76.25 7.5,113.333c-23.334,-3.333 -47.084,-5.417 -71.667,-5.417c-24.167,0 -47.917,1.667 -71.25,5.417c7.5,-36.667 10,-74.583 7.5,-112.917c-7.917,-114.166 -60.417,-218.75 -148.75,-293.75c-72.083,-61.666 -164.583,-92.5 -260,-85.833c-95.417,6.25 -182.917,48.75 -246.25,119.583c-107.5,120.417 -94.583,304.167 27.917,409.167c49.583,42.5 112.5,63.333 178.333,58.75c65.417,-4.167 125.417,-33.333 168.333,-81.667c36.25,-40.416 54.167,-92.5 50.417,-145.833c-2.5,-34.583 -13.333,-67.083 -32.083,-95.417c-16.25,-24.583 -51.667,-27.083 -71.25,-5c-12.917,14.584 -15,35.834 -4.167,52.084c12.083,17.916 18.75,39.166 18.75,61.666c0,29.167 -19.583,68.75 -41.25,88.334c-25.833,23.333 -59.167,37.083 -94.583,39.583c-41.667,2.917 -82.084,-10.417 -113.334,-37.5c-41.666,-35.417 -66.666,-85 -70.416,-139.167c-3.75,-54.166 14.166,-106.25 50.416,-147.083c97.917,-109.583 268.334,-120.833 380.417,-25c70,60 112.083,142.917 118.333,234.167c3.334,45.833 -2.916,91.25 -17.916,133.75c-173.334,66.666 -296.25,232.083 -296.25,425.833c-0,89.167 26.25,172.083 71.25,242.5c-462.5,169.167 -779.584,603.75 -779.584,1112.92c0.834,643.75 515,1168.33 1177.5,1187.92l0,0.417c4.167,0 0.834,0 2.084,0l2.083,0l0,-0.417c662.5,-19.583 1174.58,-544.166 1174.58,-1188.33c0,-509.583 -323.333,-944.167 -784.583,-1113.33Zm-1244.58,1556.25c-89.167,-0 -161.25,-70.834 -161.25,-157.917c-0,-87.083 72.083,-157.917 161.25,-157.917c89.166,0 161.25,70.834 161.25,157.917c-0,87.083 -72.084,157.917 -161.25,157.917Zm56.25,-694.584c-89.167,0 -161.25,-70.833 -161.25,-157.916c-0,-87.084 72.083,-157.917 161.25,-157.917c89.166,0 161.25,70.833 161.25,157.917c-0,87.083 -72.084,157.916 -161.25,157.916Zm461.25,1223.33c-89.167,-0 -161.25,-70.834 -161.25,-157.917c-0,-87.083 72.083,-157.917 161.25,-157.917c89.166,0 161.25,70.834 161.25,157.917c-0,87.083 -72.084,157.917 -161.25,157.917Zm-0,-815.417c-89.167,-0 -161.25,-70.833 -161.25,-157.917c-0,-87.083 72.083,-157.916 161.25,-157.916c89.166,-0 161.25,70.833 161.25,157.916c-0,87.084 -72.084,157.917 -161.25,157.917Zm2.083,-727.5c-89.167,-0 -161.25,-70.833 -161.25,-157.917c-0,-87.083 72.083,-157.916 161.25,-157.916c89.167,-0 161.25,70.833 161.25,157.916c-0,87.084 -72.5,157.917 -161.25,157.917Zm385,1450.42c-0,25.833 -16.667,46.666 -39.583,46.666c-22.917,0 -39.584,-20.833 -39.584,-46.666l0,-1570.83c0,-25.833 16.667,-46.666 39.584,-46.666c22.916,-0 39.583,20.833 39.583,46.666l-0,1570.83Zm110.417,-1608.33c-0,-87.083 72.083,-157.916 161.25,-157.916c89.166,-0 161.25,70.833 161.25,157.916c-0,87.084 -72.084,157.917 -161.25,157.917c-88.75,-0 -161.25,-70.833 -161.25,-157.917Zm163.333,1700.83c-89.167,-0 -161.25,-70.834 -161.25,-157.917c-0,-87.083 72.083,-157.917 161.25,-157.917c89.167,0 161.25,70.834 161.25,157.917c-0,87.083 -72.083,157.917 -161.25,157.917Zm-0,-815.417c-89.167,-0 -161.25,-70.833 -161.25,-157.917c-0,-87.083 72.083,-157.916 161.25,-157.916c89.167,-0 161.25,70.833 161.25,157.916c-0,87.084 -72.083,157.917 -161.25,157.917Zm300,-565.833c0,-87.084 72.083,-157.917 161.25,-157.917c89.167,0 161.25,70.833 161.25,157.917c0,87.083 -72.083,157.916 -161.25,157.916c-89.167,0 -161.25,-70.833 -161.25,-157.916Zm217.5,852.5c-89.167,-0 -161.25,-70.834 -161.25,-157.917c-0,-87.083 72.083,-157.917 161.25,-157.917c89.167,0 161.25,70.834 161.25,157.917c0,87.083 -72.083,157.917 -161.25,157.917Z"
              style="fill:#dc3545;fill-rule:nonzero;"/>
    </symbol>

    <symbol id="telephone" xmlns="http://www.w3.org/2000/svg" width="100%" height="100%" viewBox="0 0 612 612" style="fill:#F77F00" xml:space="preserve">
        <path d="M588.074,199.311c-11.954-12.377-25.671-16.74-35.288-18.225c-8.256-62.36-15.939-94.828-275.988-94.828
            C16.75,86.258,0,125.46,0,193.498v11.605c0,18.411,14.925,33.336,33.336,33.336h83.427c18.411,0,33.336-14.925,33.336-33.336
            v-11.605c0-52.705,80.699-54.319,126.698-54.319c45.998,0,126.697,1.614,126.697,54.319v11.605
            c0,18.411,14.926,33.336,33.337,33.336h83.427c18.411,0,33.337-14.925,33.337-33.336v-4.464c6.146,1.51,13.907,4.794,20.776,11.905
            c16.747,17.347,22.305,50.861,16.068,96.927c-10.815,79.816-42.181,108.325-75.585,117.813v-13.886
            c0-14.097-3.524-28.05-10.668-40.242c-33.336-57.053-80.674-107.677-140.823-152.301v-33.717c0-2.619-2.143-4.762-4.762-4.762
            h-49.481c-2.667,0-4.762,2.143-4.762,4.762v33.527h-56.481v-33.527c0-2.619-2.143-4.762-4.762-4.762h-49.529
            c-2.62,0-4.762,2.143-4.762,4.762v33.527C128.581,265.384,81.195,316.007,47.81,373.156c-7.144,12.192-10.668,26.146-10.668,40.242
            v31.384c0,44.72,36.242,80.961,80.961,80.961h315.793c44.018,0,79.744-35.135,80.855-78.884
            c53.54-12.54,83.912-56.224,94.562-134.831C616.467,259.232,609.318,221.31,588.074,199.311z M358.727,414.231l-31.774-11.313
            c3.371-6.792,5.314-14.421,5.314-22.522c0-28.003-22.716-50.72-50.767-50.72c-28.003,0-50.767,22.717-50.767,50.72
            c0,28.051,22.764,50.768,50.767,50.768c10.371,0,20.003-3.121,28.037-8.453l17.429,28.648
            c-13.129,8.43-28.707,13.379-45.465,13.379c-46.576,0-84.294-37.766-84.294-84.341c0-46.529,37.718-84.294,84.294-84.294
            c46.576,0,84.342,37.766,84.342,84.294C365.842,392.437,363.275,403.867,358.727,414.231z"/>
    </symbol>

</svg>