<?xml version="1.0" encoding="utf-8"?>
<svg xmlns="http://www.w3.org/2000/svg">
    <!--fence-->
    <symbol id="fence" viewBox="0 0 333 275" xmlns="http://www.w3.org/2000/svg" xml:space="preserve"
            style="fill-rule:evenodd;clip-rule:evenodd;stroke-linejoin:round;stroke-miterlimit:2;">
        <path fill="currentcolor" stroke="currentcolor"
              d="M183.264,230.171c-5.625,-0.313 -10.938,-0.625 -16.25,-1.25c0.312,4.062 0.312,8.125 0.625,12.5c0.312,9.687 0.312,19.687 0.625,29.375c-0,1.875 -0.938,2.812 -2.813,2.812l-44.375,0c-2.5,0 -2.812,-0.625 -2.812,-3.437l-0,-38.75c-0.313,-2.188 -0.938,-2.5 -3.125,-2.5c-7.5,0.312 -15,0.937 -22.5,1.25l-3.125,-0c0.312,4.687 0.312,9.062 0.937,13.437c0.938,7.813 1.875,15.625 3.125,23.75c0,1.25 0,1.875 -1.25,2.188c-0.937,0.312 -1.875,0.625 -2.812,0.625l-53.75,-0c-2.188,-0 -3.125,-0.625 -3.438,-2.813c-0.937,-6.562 -2.187,-12.812 -3.125,-19.375c-0.625,-5 -0.937,-10 -1.562,-15.312c-4.688,0.312 -9.375,0.625 -13.75,0.625c-3.438,0.312 -7.188,0.312 -10.938,0.312c-1.562,0 -2.812,-0.937 -2.812,-2.5l-0,-14.375c-0,-2.187 0.937,-2.812 3.125,-3.125c7.187,-0.312 14.375,-0.625 21.562,-0.937c-2.812,-35.625 -5.625,-70.625 -6.25,-106.25l-2.5,-0c-4.062,0.312 -8.437,0.625 -12.5,0.937c-2.187,0.313 -3.437,-0.937 -3.437,-3.125c-0,-4.687 -0.313,-9.375 -0,-14.375c-0,-0.937 1.562,-2.187 2.5,-2.5c3.75,-0.625 7.5,-0.937 11.25,-1.562l5,-0c-0,-3.438 -0.313,-6.25 -0,-9.375c0.625,-7.5 1.25,-15 1.875,-22.188c0.312,-2.812 0.312,-5.625 0.625,-8.437c-0,-0.938 0.625,-1.875 1.25,-2.188c8.125,-6.562 16.562,-12.812 25,-19.375c0.937,-0.937 1.875,-0.625 2.812,0c11.25,7.813 22.188,15.625 33.438,23.438c0.937,0.625 1.25,1.562 1.25,2.812l-0,33.438l25,-0c-0.313,-4.375 -0.625,-8.438 -0.938,-12.5c-0.937,-8.75 -1.875,-17.5 -2.812,-26.25c-0.313,-1.563 0.312,-2.813 1.562,-4.063c5.938,-5.625 11.563,-11.25 17.188,-17.187c0.625,-0.625 1.25,-1.563 2.5,-0.625c7.5,5.625 15,10.937 22.5,16.562c4.375,3.125 6.25,7.813 6.875,13.125c0.937,10 2.5,19.688 4.062,29.375c0,0.625 0.625,1.563 1.25,1.563l16.25,-0l0,-2.5c-0.312,-20 -0.625,-40 -0.937,-60c-0,-0.938 0.312,-1.875 0.937,-2.5c5.938,-5.938 11.875,-11.875 17.813,-17.813c1.25,-1.25 2.187,-1.562 3.75,-0.312c8.437,6.25 16.562,12.5 25,18.75c1.875,1.562 2.812,3.125 2.812,5.937c0.625,15.938 1.25,32.188 1.875,48.125l0,11.25l26.25,0c0.625,-5.625 1.25,-11.25 2.188,-16.875c1.25,-9.687 2.5,-19.375 3.75,-28.75c-0,-0.625 0.625,-1.25 1.25,-1.562c9.062,-5.625 18.437,-11.25 27.5,-16.563c0.312,-0.312 1.562,0 1.875,0.313c6.875,7.187 13.437,14.375 20,21.562c0.312,0.313 0.625,0.938 0.625,1.563c-1.563,11.875 -3.438,23.75 -5,35.625c-0.313,2.187 -0.313,4.062 -0.625,6.562c5.625,0.313 10.937,0.625 16.25,0.938c2.187,-0 4.062,-0 6.25,0.312c2.187,0 2.812,0.938 2.812,2.813l0,14.062c0,2.5 -0.625,3.125 -3.125,3.125c-8.125,0 -15.937,0.625 -24.375,-1.562c-3.125,35.937 -4.375,71.562 -5,107.5l27.813,-0c4.375,-0 4.687,0.312 4.687,4.687l0,11.563c0,3.437 -0.312,4.062 -4.062,4.062l-28.125,0c-0.313,5 -0.313,9.375 -0.625,14.063c-0.313,7.5 -0.625,15 -0.938,22.5c0,2.5 -0.937,3.437 -3.437,3.437l-44.063,0c-1.562,-0.312 -2.5,-1.25 -2.5,-3.437c0.625,-12.5 0.938,-25 1.25,-37.813l0,-1.25l-15.937,0l-0,5.938c0.625,10.937 1.562,21.562 2.187,32.5c0.313,2.812 -0.625,3.75 -3.75,3.75l-42.5,-0c-1.875,-0 -2.812,-0.938 -3.125,-2.5c-0.625,-4.063 -1.875,-8.125 -1.875,-11.875c-0.625,-9.063 -0.625,-18.125 -0.937,-27.188c-1.25,-0.937 -1.25,-1.562 -1.25,-2.187Zm-99.688,-126.25c0,35.312 0.625,70.625 3.75,105.937l30,0c0,-35.937 -1.25,-71.562 -5,-106.875c-9.687,0 -19.062,0.313 -28.75,0.938Zm166.563,107.187c1.25,-35.625 2.5,-70.625 3.75,-105.937c-8.125,-0.313 -16.25,-0.938 -24.375,-1.25c0.312,3.437 0.937,6.562 1.25,9.687c0.312,18.438 0.625,36.875 0.937,55.313c0.313,12.812 0.313,25.937 0.625,38.75c0,2.5 0.938,3.437 3.438,3.75c4.687,-0.313 9.687,-0.313 14.375,-0.313Zm-87.813,-109.062c1.563,36.25 3.438,71.875 5,107.5l14.688,-0l-0,-1.25c-0.625,-15 -1.25,-30.313 -1.563,-45.313c-0.312,-18.75 -0.625,-37.187 -0.625,-55.937c0,-2.188 -0.937,-3.125 -2.5,-3.438c-5,-0.625 -10,-0.937 -15,-1.562Zm42.188,12.812c-3.438,31.25 -2.188,62.188 3.437,92.813c4.688,-31.25 3.438,-62.188 -3.437,-92.813Zm-154.375,-9.062c5,-0 8.437,-3.438 8.437,-8.438c0,-5 -3.437,-8.75 -8.437,-8.437c-4.688,-0 -8.125,3.437 -8.125,8.437c-0,4.688 3.437,8.438 8.125,8.438Zm224.687,124.375c5,-0 8.125,-3.438 8.125,-8.438c0,-5 -3.437,-8.75 -8.437,-8.437c-4.688,-0 -8.125,3.437 -8.125,8.437c-0,5 3.437,8.438 8.437,8.438Zm-129.375,-136.25c0,-5 -3.125,-8.438 -8.125,-8.438c-5,0 -8.437,3.438 -8.437,8.438c-0,5 3.437,8.437 8.125,8.437c5.312,0.313 8.437,-3.125 8.437,-8.437Zm-11.875,126.875c0,5 3.438,8.437 8.125,8.437c5,0 8.438,-3.437 8.438,-8.437c-0,-5 -3.438,-8.438 -8.438,-8.438c-5,0 -8.125,3.438 -8.125,8.438Zm77.5,-126.563c0,-5 -3.437,-8.75 -8.125,-8.75c-4.687,0 -8.125,3.438 -8.437,8.438c-0,5 3.437,8.75 8.125,8.75c5,-0 8.437,-3.75 8.437,-8.438Zm-163.125,127.188c0,5 3.125,8.437 8.125,8.75c5,-0 8.438,-3.438 8.438,-8.438c-0,-5 -3.438,-8.75 -8.125,-8.75c-5,0 -8.438,3.438 -8.438,8.438Zm234.688,-115.313c5,0 8.437,-3.125 8.437,-8.437c0,-5 -3.125,-8.438 -8.125,-8.75c-5,-0 -8.437,3.125 -8.437,8.437c-0,5.313 3.125,8.75 8.125,8.75Zm-73.75,124.375c5,0 8.437,-3.125 8.437,-8.437c0,-5 -3.125,-8.438 -8.125,-8.438c-5,0 -8.437,3.438 -8.437,8.438c-0,5 3.437,8.437 8.125,8.437Z"/>
    </symbol>
    <!--fence-colored -->
    <symbol id="fence-colored" viewBox="0 0 333 275" xmlns="http://www.w3.org/2000/svg" xml:space="preserve"
            style="fill-rule:evenodd;clip-rule:evenodd;stroke-linejoin:round;stroke-miterlimit:2;">
        <path style="fill:#57390f;"
              d="M183.264,230.171c-5.625,-0.313 -10.938,-0.625 -16.25,-1.25c0.312,4.062 0.312,8.125 0.625,12.5c0.312,9.687 0.312,19.687 0.625,29.375c-0,1.875 -0.938,2.812 -2.813,2.812l-44.375,0c-2.5,0 -2.812,-0.625 -2.812,-3.437l-0,-38.75c-0.313,-2.188 -0.938,-2.5 -3.125,-2.5c-7.5,0.312 -15,0.937 -22.5,1.25l-3.125,-0c0.312,4.687 0.312,9.062 0.937,13.437c0.938,7.813 1.875,15.625 3.125,23.75c0,1.25 0,1.875 -1.25,2.188c-0.937,0.312 -1.875,0.625 -2.812,0.625l-53.75,-0c-2.188,-0 -3.125,-0.625 -3.438,-2.813c-0.937,-6.562 -2.187,-12.812 -3.125,-19.375c-0.625,-5 -0.937,-10 -1.562,-15.312c-4.688,0.312 -9.375,0.625 -13.75,0.625c-3.438,0.312 -7.188,0.312 -10.938,0.312c-1.562,0 -2.812,-0.937 -2.812,-2.5l-0,-14.375c-0,-2.187 0.937,-2.812 3.125,-3.125c7.187,-0.312 14.375,-0.625 21.562,-0.937c-2.812,-35.625 -5.625,-70.625 -6.25,-106.25l-2.5,-0c-4.062,0.312 -8.437,0.625 -12.5,0.937c-2.187,0.313 -3.437,-0.937 -3.437,-3.125c-0,-4.687 -0.313,-9.375 -0,-14.375c-0,-0.937 1.562,-2.187 2.5,-2.5c3.75,-0.625 7.5,-0.937 11.25,-1.562l5,-0c-0,-3.438 -0.313,-6.25 -0,-9.375c0.625,-7.5 1.25,-15 1.875,-22.188c0.312,-2.812 0.312,-5.625 0.625,-8.437c-0,-0.938 0.625,-1.875 1.25,-2.188c8.125,-6.562 16.562,-12.812 25,-19.375c0.937,-0.937 1.875,-0.625 2.812,0c11.25,7.813 22.188,15.625 33.438,23.438c0.937,0.625 1.25,1.562 1.25,2.812l-0,33.438l25,-0c-0.313,-4.375 -0.625,-8.438 -0.938,-12.5c-0.937,-8.75 -1.875,-17.5 -2.812,-26.25c-0.313,-1.563 0.312,-2.813 1.562,-4.063c5.938,-5.625 11.563,-11.25 17.188,-17.187c0.625,-0.625 1.25,-1.563 2.5,-0.625c7.5,5.625 15,10.937 22.5,16.562c4.375,3.125 6.25,7.813 6.875,13.125c0.937,10 2.5,19.688 4.062,29.375c0,0.625 0.625,1.563 1.25,1.563l16.25,-0l0,-2.5c-0.312,-20 -0.625,-40 -0.937,-60c-0,-0.938 0.312,-1.875 0.937,-2.5c5.938,-5.938 11.875,-11.875 17.813,-17.813c1.25,-1.25 2.187,-1.562 3.75,-0.312c8.437,6.25 16.562,12.5 25,18.75c1.875,1.562 2.812,3.125 2.812,5.937c0.625,15.938 1.25,32.188 1.875,48.125l0,11.25l26.25,0c0.625,-5.625 1.25,-11.25 2.188,-16.875c1.25,-9.687 2.5,-19.375 3.75,-28.75c-0,-0.625 0.625,-1.25 1.25,-1.562c9.062,-5.625 18.437,-11.25 27.5,-16.563c0.312,-0.312 1.562,0 1.875,0.313c6.875,7.187 13.437,14.375 20,21.562c0.312,0.313 0.625,0.938 0.625,1.563c-1.563,11.875 -3.438,23.75 -5,35.625c-0.313,2.187 -0.313,4.062 -0.625,6.562c5.625,0.313 10.937,0.625 16.25,0.938c2.187,-0 4.062,-0 6.25,0.312c2.187,0 2.812,0.938 2.812,2.813l0,14.062c0,2.5 -0.625,3.125 -3.125,3.125c-8.125,0 -15.937,0.625 -24.375,-1.562c-3.125,35.937 -4.375,71.562 -5,107.5l27.813,-0c4.375,-0 4.687,0.312 4.687,4.687l0,11.563c0,3.437 -0.312,4.062 -4.062,4.062l-28.125,0c-0.313,5 -0.313,9.375 -0.625,14.063c-0.313,7.5 -0.625,15 -0.938,22.5c0,2.5 -0.937,3.437 -3.437,3.437l-44.063,0c-1.562,-0.312 -2.5,-1.25 -2.5,-3.437c0.625,-12.5 0.938,-25 1.25,-37.813l0,-1.25l-15.937,0l-0,5.938c0.625,10.937 1.562,21.562 2.187,32.5c0.313,2.812 -0.625,3.75 -3.75,3.75l-42.5,-0c-1.875,-0 -2.812,-0.938 -3.125,-2.5c-0.625,-4.063 -1.875,-8.125 -1.875,-11.875c-0.625,-9.063 -0.625,-18.125 -0.937,-27.188c-1.25,-0.937 -1.25,-1.562 -1.25,-2.187Zm-99.688,-126.25c0,35.312 0.625,70.625 3.75,105.937l30,0c0,-35.937 -1.25,-71.562 -5,-106.875c-9.687,0 -19.062,0.313 -28.75,0.938Zm166.563,107.187c1.25,-35.625 2.5,-70.625 3.75,-105.937c-8.125,-0.313 -16.25,-0.938 -24.375,-1.25c0.312,3.437 0.937,6.562 1.25,9.687c0.312,18.438 0.625,36.875 0.937,55.313c0.313,12.812 0.313,25.937 0.625,38.75c0,2.5 0.938,3.437 3.438,3.75c4.687,-0.313 9.687,-0.313 14.375,-0.313Zm-87.813,-109.062c1.563,36.25 3.438,71.875 5,107.5l14.688,-0l-0,-1.25c-0.625,-15 -1.25,-30.313 -1.563,-45.313c-0.312,-18.75 -0.625,-37.187 -0.625,-55.937c0,-2.188 -0.937,-3.125 -2.5,-3.438c-5,-0.625 -10,-0.937 -15,-1.562Zm42.188,12.812c-3.438,31.25 -2.188,62.188 3.437,92.813c4.688,-31.25 3.438,-62.188 -3.437,-92.813Zm-154.375,-9.062c5,-0 8.437,-3.438 8.437,-8.438c0,-5 -3.437,-8.75 -8.437,-8.437c-4.688,-0 -8.125,3.437 -8.125,8.437c-0,4.688 3.437,8.438 8.125,8.438Zm224.687,124.375c5,-0 8.125,-3.438 8.125,-8.438c0,-5 -3.437,-8.75 -8.437,-8.437c-4.688,-0 -8.125,3.437 -8.125,8.437c-0,5 3.437,8.438 8.437,8.438Zm-129.375,-136.25c0,-5 -3.125,-8.438 -8.125,-8.438c-5,0 -8.437,3.438 -8.437,8.438c-0,5 3.437,8.437 8.125,8.437c5.312,0.313 8.437,-3.125 8.437,-8.437Zm-11.875,126.875c0,5 3.438,8.437 8.125,8.437c5,0 8.438,-3.437 8.438,-8.437c-0,-5 -3.438,-8.438 -8.438,-8.438c-5,0 -8.125,3.438 -8.125,8.438Zm77.5,-126.563c0,-5 -3.437,-8.75 -8.125,-8.75c-4.687,0 -8.125,3.438 -8.437,8.438c-0,5 3.437,8.75 8.125,8.75c5,-0 8.437,-3.75 8.437,-8.438Zm-163.125,127.188c0,5 3.125,8.437 8.125,8.75c5,-0 8.438,-3.438 8.438,-8.438c-0,-5 -3.438,-8.75 -8.125,-8.75c-5,0 -8.438,3.438 -8.438,8.438Zm234.688,-115.313c5,0 8.437,-3.125 8.437,-8.437c0,-5 -3.125,-8.438 -8.125,-8.75c-5,-0 -8.437,3.125 -8.437,8.437c-0,5.313 3.125,8.75 8.125,8.75Zm-73.75,124.375c5,0 8.437,-3.125 8.437,-8.437c0,-5 -3.125,-8.438 -8.125,-8.438c-5,0 -8.437,3.438 -8.437,8.438c-0,5 3.437,8.437 8.125,8.437Z"/>
    </symbol>
    <!--water can-->
    <symbol id="watercan" viewBox="0 0 2701 2222" xmlns="http://www.w3.org/2000/svg">
        <path d="M2472.39,949.185c92.965,-312.959 132.792,-661.844 -125.724,-881.262c-222.618,-189.626 -302.069,54.738 -336.955,280.292l-67.599,-87.544l-850.026,654.483l270.833,351.51l-760.633,-103.449c-26.747,-87.668 -96.739,-157.365 -186.908,-181.891c-9.987,-4.971 -20.876,-8.637 -32.215,-9.537c-5.872,-0.87 -12.24,0.9 -18.003,1.351c-0.87,0 -1.926,-0.451 -2.796,-0.451l0,0.451c-74.34,11.386 -141.054,117.957 -155.065,254.025c-6.788,68.066 -0.528,133.646 17.707,185.028c21.746,60.703 58.079,96.585 102.906,101.105c13.281,1.398 26.297,-0.451 39.081,-4.521c103.853,-8.092 191.801,-75.708 228.629,-170.644l918.4,124.807l335.682,436.29l850.305,-654.527l-227.622,-295.515l0.003,-0.001Zm-2139.54,488.451c-12.659,-3.744 -27.121,-22.803 -37.186,-50.886c-14.057,-40.355 -19.028,-95.59 -12.985,-151.944c9.087,-92.918 43.025,-157.768 72.616,-180.011c0.745,-0.901 1.227,-0.901 2.143,-1.771l-24.588,384.613l0.001,-0.001Zm2086,-557.868l-344.241,-447.799c4.52,-46.148 9.91,-92.39 17.677,-138.663c10.391,-65.27 26.343,-131.471 61.231,-188.228c74.34,-120.256 217.74,104.226 247.207,156.463c103.357,186.008 78.504,406.901 18.127,618.228l-0.001,-0.001Z"
              fill="currentcolor" stroke="currentcolor"/>
        <path d="M0,2032.27c0,27.214 21.87,48.944 48.944,48.944c27.214,-0 49.022,-21.745 49.022,-48.944c0,-26.919 -49.022,-82.977 -49.022,-82.977c0,-0 -48.944,56.059 -48.944,82.977Z"
              style="fill:#17a2b8;"/>
        <path d="M331.94,2133.43c0,48.494 39.5,87.994 88.118,87.994c47.998,-0 87.497,-39.454 87.497,-87.994c0,-48.572 -87.497,-148.403 -87.497,-148.403c-0,0 -88.118,99.815 -88.118,148.403Z"
              style="fill:#17a2b8;"/>
        <path d="M261.7,1609.01c-0,0 -82.931,94.86 -82.931,140.108c0,45.946 37.032,83.147 82.931,83.147c45.45,0 82.527,-37.185 82.527,-83.147c-0,-45.248 -82.527,-140.108 -82.527,-140.108Z"
              style="fill:#17a2b8;"/>
    </symbol>
    <!--water can-colored -->
    <symbol id="watercan-colored" viewBox="0 0 2701 2222" xmlns="http://www.w3.org/2000/svg">
        <path d="M2472.39,949.185c92.965,-312.959 132.792,-661.844 -125.724,-881.262c-222.618,-189.626 -302.069,54.738 -336.955,280.292l-67.599,-87.544l-850.026,654.483l270.833,351.51l-760.633,-103.449c-26.747,-87.668 -96.739,-157.365 -186.908,-181.891c-9.987,-4.971 -20.876,-8.637 -32.215,-9.537c-5.872,-0.87 -12.24,0.9 -18.003,1.351c-0.87,0 -1.926,-0.451 -2.796,-0.451l0,0.451c-74.34,11.386 -141.054,117.957 -155.065,254.025c-6.788,68.066 -0.528,133.646 17.707,185.028c21.746,60.703 58.079,96.585 102.906,101.105c13.281,1.398 26.297,-0.451 39.081,-4.521c103.853,-8.092 191.801,-75.708 228.629,-170.644l918.4,124.807l335.682,436.29l850.305,-654.527l-227.622,-295.515l0.003,-0.001Zm-2139.54,488.451c-12.659,-3.744 -27.121,-22.803 -37.186,-50.886c-14.057,-40.355 -19.028,-95.59 -12.985,-151.944c9.087,-92.918 43.025,-157.768 72.616,-180.011c0.745,-0.901 1.227,-0.901 2.143,-1.771l-24.588,384.613l0.001,-0.001Zm2086,-557.868l-344.241,-447.799c4.52,-46.148 9.91,-92.39 17.677,-138.663c10.391,-65.27 26.343,-131.471 61.231,-188.228c74.34,-120.256 217.74,104.226 247.207,156.463c103.357,186.008 78.504,406.901 18.127,618.228l-0.001,-0.001Z"
              style="fill:#606c38;"/>
        <path d="M0,2032.27c0,27.214 21.87,48.944 48.944,48.944c27.214,-0 49.022,-21.745 49.022,-48.944c0,-26.919 -49.022,-82.977 -49.022,-82.977c0,-0 -48.944,56.059 -48.944,82.977Z"
              style="fill:#17a2b8;"/>
        <path d="M331.94,2133.43c0,48.494 39.5,87.994 88.118,87.994c47.998,-0 87.497,-39.454 87.497,-87.994c0,-48.572 -87.497,-148.403 -87.497,-148.403c-0,0 -88.118,99.815 -88.118,148.403Z"
              style="fill:#17a2b8;"/>
        <path d="M261.7,1609.01c-0,0 -82.931,94.86 -82.931,140.108c0,45.946 37.032,83.147 82.931,83.147c45.45,0 82.527,-37.185 82.527,-83.147c-0,-45.248 -82.527,-140.108 -82.527,-140.108Z"
              style="fill:#17a2b8;"/>
    </symbol>
    <!-- carrot-->
    <symbol id="carrot" viewBox="0 0 2700 2700" xmlns="http://www.w3.org/2000/svg" style="fill-rule:evenodd;clip-rule:evenodd;stroke-linejoin:round;stroke-miterlimit:2;">
        <path style="fill:#606c38;fill-rule:nonzero;"
              d="M1209.83,613.967c6.157,-6.163 15.392,-15.408 24.628,-24.652c18.471,-15.408 15.392,-29.275 -15.393,-43.142c-40.02,-18.49 -80.041,-38.52 -116.983,-58.55c-33.864,-18.489 -27.707,-41.601 12.314,-52.386c-21.55,-33.898 -43.099,-67.795 -67.728,-101.692c-9.235,-13.867 0,-24.653 27.707,-29.275c52.335,-12.326 107.748,-23.112 153.926,-33.897c-6.157,-26.193 -12.314,-55.468 -21.55,-84.743c-6.157,-21.571 15.393,-38.52 52.335,-46.223c80.041,-18.49 160.083,-36.979 243.202,-52.387c107.748,-20.03 110.827,-18.489 178.554,26.193c21.55,13.867 43.099,26.194 61.57,40.061c46.178,27.734 46.178,50.845 3.079,80.12c-27.707,18.49 -58.492,38.52 -92.355,60.091c55.413,7.704 107.747,13.867 157.004,21.571c36.942,83.202 -98.513,83.202 -190.868,103.232c9.235,18.489 21.549,35.438 30.785,53.927c9.236,18.49 -9.236,30.816 -33.864,44.683c-98.512,52.387 -178.553,110.936 -221.653,180.271c-12.314,20.031 -21.549,41.601 -30.785,63.172c-49.256,6.164 -86.198,0 -123.14,-20.03c-89.277,-49.305 -197.025,-87.824 -323.244,-112.477c-18.471,-3.081 -43.099,-1.541 -64.649,1.541c-36.942,6.163 -70.806,15.408 -107.748,23.112c-61.57,12.326 -123.14,13.867 -172.397,-12.327c-36.942,-20.03 -76.962,-20.03 -116.983,-4.622c-6.157,1.541 -12.314,3.082 -18.471,4.622c-43.099,-30.815 -43.099,-30.815 -9.236,-78.579c-70.805,-3.082 -138.533,-10.786 -181.632,-41.601c-43.099,-30.816 -55.413,-64.713 -52.335,-95.529c92.356,-21.571 178.554,-43.142 267.831,-61.631c9.236,-3.082 30.785,-0 40.021,3.081c46.177,15.408 89.277,32.357 132.376,49.305c9.235,-7.704 12.314,-15.407 21.549,-21.571c24.628,-18.489 64.649,-21.57 92.356,-6.163c40.02,21.571 76.963,44.683 110.826,69.335c46.178,33.898 86.199,70.876 129.298,106.314c6.157,4.623 15.392,12.327 24.628,13.867c64.649,13.867 129.297,24.653 197.025,36.979Z"/>

        <path fill="currentcolor" stroke="currentcolor"
              d="M1850.16,1895.9c12.314,-15.408 -3.078,-20.03 -27.706,-23.111c-138.533,-18.49 -280.145,-20.031 -418.678,-0c-30.785,4.622 -46.178,-0 -61.57,-12.327c-46.178,-33.897 -86.199,-69.335 -92.356,-110.936c0,-9.245 9.236,-21.571 21.55,-27.734c141.612,-61.631 298.616,-107.855 495.64,-110.936c15.393,-16.949 -6.157,-20.03 -30.785,-23.112c-160.082,-24.653 -320.165,-12.326 -477.169,7.704c-36.942,4.622 -76.963,9.245 -113.905,13.867c-9.236,1.541 -27.707,-1.541 -30.785,-6.163c-24.628,-24.653 -46.178,-50.846 -67.728,-75.498c-12.314,-12.327 0,-21.571 21.55,-29.275c135.455,-55.468 292.459,-92.447 455.62,-123.263c46.178,-7.704 92.355,-13.867 135.455,-23.112c12.314,-3.081 21.549,-10.785 30.785,-16.948c-12.314,-4.623 -21.55,-9.245 -36.942,-12.326c-175.476,-29.275 -341.715,-0 -504.877,27.734c-61.57,10.785 -123.14,23.111 -187.789,36.978c-67.727,-41.601 -120.062,-87.824 -144.69,-140.211c-49.256,-109.395 -33.864,-212.628 120.062,-301.993c95.434,-55.468 221.653,-84.743 360.186,-92.447c147.769,-7.704 298.616,-10.785 449.463,-7.704c132.376,1.541 230.888,41.601 298.616,98.61c76.962,64.713 107.748,138.671 120.062,212.628c40.02,215.71 55.413,432.96 52.334,650.21c-3.078,235.739 0,469.938 0,705.678c0,33.897 -67.727,70.876 -132.376,73.957c-30.785,1.541 -64.648,3.082 -95.434,0c-18.471,-1.541 -40.02,-9.244 -49.256,-18.489c-40.02,-32.357 -80.041,-64.713 -107.748,-100.151c-126.219,-158.7 -252.438,-317.401 -375.578,-477.642c-3.079,-4.622 3.078,-16.949 12.314,-20.03c120.062,-33.897 240.124,-67.795 381.735,-73.958Z"/>
    </symbol>
    <!-- carrot-colored -->
    <symbol id="carrot-colored" viewBox="0 0 2700 2700" xmlns="http://www.w3.org/2000/svg" style="fill-rule:evenodd;clip-rule:evenodd;stroke-linejoin:round;stroke-miterlimit:2;">
        <path style="fill:#606c38;fill-rule:nonzero;"
              d="M1209.83,613.967c6.157,-6.163 15.392,-15.408 24.628,-24.652c18.471,-15.408 15.392,-29.275 -15.393,-43.142c-40.02,-18.49 -80.041,-38.52 -116.983,-58.55c-33.864,-18.489 -27.707,-41.601 12.314,-52.386c-21.55,-33.898 -43.099,-67.795 -67.728,-101.692c-9.235,-13.867 0,-24.653 27.707,-29.275c52.335,-12.326 107.748,-23.112 153.926,-33.897c-6.157,-26.193 -12.314,-55.468 -21.55,-84.743c-6.157,-21.571 15.393,-38.52 52.335,-46.223c80.041,-18.49 160.083,-36.979 243.202,-52.387c107.748,-20.03 110.827,-18.489 178.554,26.193c21.55,13.867 43.099,26.194 61.57,40.061c46.178,27.734 46.178,50.845 3.079,80.12c-27.707,18.49 -58.492,38.52 -92.355,60.091c55.413,7.704 107.747,13.867 157.004,21.571c36.942,83.202 -98.513,83.202 -190.868,103.232c9.235,18.489 21.549,35.438 30.785,53.927c9.236,18.49 -9.236,30.816 -33.864,44.683c-98.512,52.387 -178.553,110.936 -221.653,180.271c-12.314,20.031 -21.549,41.601 -30.785,63.172c-49.256,6.164 -86.198,0 -123.14,-20.03c-89.277,-49.305 -197.025,-87.824 -323.244,-112.477c-18.471,-3.081 -43.099,-1.541 -64.649,1.541c-36.942,6.163 -70.806,15.408 -107.748,23.112c-61.57,12.326 -123.14,13.867 -172.397,-12.327c-36.942,-20.03 -76.962,-20.03 -116.983,-4.622c-6.157,1.541 -12.314,3.082 -18.471,4.622c-43.099,-30.815 -43.099,-30.815 -9.236,-78.579c-70.805,-3.082 -138.533,-10.786 -181.632,-41.601c-43.099,-30.816 -55.413,-64.713 -52.335,-95.529c92.356,-21.571 178.554,-43.142 267.831,-61.631c9.236,-3.082 30.785,-0 40.021,3.081c46.177,15.408 89.277,32.357 132.376,49.305c9.235,-7.704 12.314,-15.407 21.549,-21.571c24.628,-18.489 64.649,-21.57 92.356,-6.163c40.02,21.571 76.963,44.683 110.826,69.335c46.178,33.898 86.199,70.876 129.298,106.314c6.157,4.623 15.392,12.327 24.628,13.867c64.649,13.867 129.297,24.653 197.025,36.979Z"/>
        <path style="fill:#b08968;fill-rule:nonzero;"
              d="M1850.16,1895.9c12.314,-15.408 -3.078,-20.03 -27.706,-23.111c-138.533,-18.49 -280.145,-20.031 -418.678,-0c-30.785,4.622 -46.178,-0 -61.57,-12.327c-46.178,-33.897 -86.199,-69.335 -92.356,-110.936c0,-9.245 9.236,-21.571 21.55,-27.734c141.612,-61.631 298.616,-107.855 495.64,-110.936c15.393,-16.949 -6.157,-20.03 -30.785,-23.112c-160.082,-24.653 -320.165,-12.326 -477.169,7.704c-36.942,4.622 -76.963,9.245 -113.905,13.867c-9.236,1.541 -27.707,-1.541 -30.785,-6.163c-24.628,-24.653 -46.178,-50.846 -67.728,-75.498c-12.314,-12.327 0,-21.571 21.55,-29.275c135.455,-55.468 292.459,-92.447 455.62,-123.263c46.178,-7.704 92.355,-13.867 135.455,-23.112c12.314,-3.081 21.549,-10.785 30.785,-16.948c-12.314,-4.623 -21.55,-9.245 -36.942,-12.326c-175.476,-29.275 -341.715,-0 -504.877,27.734c-61.57,10.785 -123.14,23.111 -187.789,36.978c-67.727,-41.601 -120.062,-87.824 -144.69,-140.211c-49.256,-109.395 -33.864,-212.628 120.062,-301.993c95.434,-55.468 221.653,-84.743 360.186,-92.447c147.769,-7.704 298.616,-10.785 449.463,-7.704c132.376,1.541 230.888,41.601 298.616,98.61c76.962,64.713 107.748,138.671 120.062,212.628c40.02,215.71 55.413,432.96 52.334,650.21c-3.078,235.739 0,469.938 0,705.678c0,33.897 -67.727,70.876 -132.376,73.957c-30.785,1.541 -64.648,3.082 -95.434,0c-18.471,-1.541 -40.02,-9.244 -49.256,-18.489c-40.02,-32.357 -80.041,-64.713 -107.748,-100.151c-126.219,-158.7 -252.438,-317.401 -375.578,-477.642c-3.079,-4.622 3.078,-16.949 12.314,-20.03c120.062,-33.897 240.124,-67.795 381.735,-73.958Z"/>

    </symbol>
    <!-- plant-pot -->
    <symbol id="plant-pot" viewBox="0 0 2700 2700" xmlns="http://www.w3.org/2000/svg" style="fill-rule:evenodd;clip-rule:evenodd;stroke-linejoin:round;stroke-miterlimit:2;">
        <path fill="currentcolor" stroke="currentcolor"
              d="M1784.3,1609.72l0,-49.718l-1212.18,0c-7.194,0 -10.791,-3.824 -12.589,-13.385l-0,-386.271c-0,-17.21 5.395,-21.034 19.783,-21.034l1611.45,-0c8.993,1.912 12.59,5.736 12.59,15.298l-0,380.533c-0,19.123 -3.597,22.947 -21.582,22.947l-89.925,-0c-1.798,13.386 -3.597,24.859 -3.597,36.332c-10.791,110.91 -23.38,223.731 -34.171,334.64c-8.993,87.963 -19.783,175.926 -30.574,263.888c-8.993,70.753 -21.582,139.593 -30.575,210.345c-3.597,24.859 -12.589,43.982 -28.776,63.104c-17.985,21.034 -37.768,42.069 -61.148,59.279c-25.179,17.21 -53.955,24.859 -82.731,24.859l-848.888,-0c-68.343,-0 -118.701,-30.596 -152.872,-93.699c-21.582,-38.245 -35.97,-80.314 -48.559,-122.383c-19.784,-66.928 -32.373,-133.856 -39.567,-202.696c-8.993,-74.577 -16.187,-151.066 -23.381,-225.643c-5.395,-63.104 -8.992,-126.207 -14.388,-187.399c-1.798,-28.683 -5.395,-55.454 -7.194,-84.138l0,-9.561c0,-11.473 3.597,-17.21 14.388,-17.21l89.925,-0c10.791,-0 21.582,-0 32.373,1.912c14.388,0 16.186,0 19.783,17.21c3.597,17.21 7.194,34.42 10.791,51.63c7.194,65.016 16.187,130.032 21.582,195.048c7.194,68.84 12.589,139.593 19.783,208.433c3.597,30.595 7.194,61.191 12.59,91.787c1.798,13.385 7.194,26.771 10.791,40.157c8.992,28.683 17.985,57.366 26.977,84.138c10.791,28.683 23.381,53.542 41.366,76.489c25.178,30.596 55.753,47.806 95.32,47.806c14.388,-0 25.179,-3.825 34.171,-11.474c-39.567,-93.699 -57.552,-193.135 -71.94,-294.483c-14.388,-105.173 -21.582,-212.258 -23.38,-317.43c-1.799,-49.718 -1.799,-99.436 -3.597,-149.154l-0,-26.771c1.798,-11.474 7.194,-15.298 19.783,-13.386c5.396,0 10.791,1.912 17.985,1.912l712.203,0c5.396,-1.912 10.791,-1.912 17.985,-1.912Z"/>
        <path fill="currentcolor" stroke="currentcolor"
              d="M2046.88,489.151c-12.589,3.824 -23.38,5.737 -35.97,9.561c-16.186,3.824 -30.574,9.561 -46.761,15.298c-14.388,5.737 -14.388,7.649 -14.388,22.947c3.597,70.752 7.194,143.417 12.59,214.169c5.395,72.665 10.791,145.33 17.985,217.994c1.798,30.596 5.395,61.192 8.992,93.7c-7.194,7.649 -16.186,9.561 -26.977,9.561l-863.276,-0c-12.59,-0 -19.784,-3.825 -25.179,-17.21c-10.791,-24.859 -21.582,-49.718 -28.776,-74.577c-19.784,-66.928 -39.567,-135.769 -59.35,-202.697c-0,-1.912 -1.799,-5.736 -1.799,-9.561c5.396,-1.912 12.59,-5.736 17.985,-7.649c35.97,-9.561 71.94,-21.034 107.91,-28.683c165.461,-34.42 329.124,-68.84 494.585,-103.26c21.582,-3.825 43.164,-9.562 66.544,-13.386l0,-40.157c-5.395,0 -10.791,0 -16.186,1.912c-178.051,36.333 -357.9,72.665 -535.951,108.997c-131.29,26.772 -260.781,53.543 -392.071,78.402c-52.157,9.561 -104.313,19.122 -154.671,26.771l-5.395,0c-7.194,-13.386 -71.94,-348.026 -70.141,-370.972c492.787,-103.261 985.573,-208.433 1480.16,-311.694c3.597,11.474 7.194,21.035 8.992,30.596c10.791,53.542 21.582,108.997 32.373,162.539c10.791,59.279 19.783,116.646 28.776,175.925l-0,11.474Z"/>
    </symbol>
    <!-- plant-pot -->
    <symbol id="plant-pot-colored" viewBox="0 0 2700 2700" xmlns="http://www.w3.org/2000/svg"
            style="fill-rule:evenodd;clip-rule:evenodd;stroke-linejoin:round;stroke-miterlimit:2;">
        <path style="fill:#755941;fill-rule:nonzero;"
              d="M1784.3,1609.72l0,-49.718l-1212.18,0c-7.194,0 -10.791,-3.824 -12.589,-13.385l-0,-386.271c-0,-17.21 5.395,-21.034 19.783,-21.034l1611.45,-0c8.993,1.912 12.59,5.736 12.59,15.298l-0,380.533c-0,19.123 -3.597,22.947 -21.582,22.947l-89.925,-0c-1.798,13.386 -3.597,24.859 -3.597,36.332c-10.791,110.91 -23.38,223.731 -34.171,334.64c-8.993,87.963 -19.783,175.926 -30.574,263.888c-8.993,70.753 -21.582,139.593 -30.575,210.345c-3.597,24.859 -12.589,43.982 -28.776,63.104c-17.985,21.034 -37.768,42.069 -61.148,59.279c-25.179,17.21 -53.955,24.859 -82.731,24.859l-848.888,-0c-68.343,-0 -118.701,-30.596 -152.872,-93.699c-21.582,-38.245 -35.97,-80.314 -48.559,-122.383c-19.784,-66.928 -32.373,-133.856 -39.567,-202.696c-8.993,-74.577 -16.187,-151.066 -23.381,-225.643c-5.395,-63.104 -8.992,-126.207 -14.388,-187.399c-1.798,-28.683 -5.395,-55.454 -7.194,-84.138l0,-9.561c0,-11.473 3.597,-17.21 14.388,-17.21l89.925,-0c10.791,-0 21.582,-0 32.373,1.912c14.388,0 16.186,0 19.783,17.21c3.597,17.21 7.194,34.42 10.791,51.63c7.194,65.016 16.187,130.032 21.582,195.048c7.194,68.84 12.589,139.593 19.783,208.433c3.597,30.595 7.194,61.191 12.59,91.787c1.798,13.385 7.194,26.771 10.791,40.157c8.992,28.683 17.985,57.366 26.977,84.138c10.791,28.683 23.381,53.542 41.366,76.489c25.178,30.596 55.753,47.806 95.32,47.806c14.388,-0 25.179,-3.825 34.171,-11.474c-39.567,-93.699 -57.552,-193.135 -71.94,-294.483c-14.388,-105.173 -21.582,-212.258 -23.38,-317.43c-1.799,-49.718 -1.799,-99.436 -3.597,-149.154l-0,-26.771c1.798,-11.474 7.194,-15.298 19.783,-13.386c5.396,0 10.791,1.912 17.985,1.912l712.203,0c5.396,-1.912 10.791,-1.912 17.985,-1.912Z"/>
        <path style="fill:#B08968;fill-rule:nonzero;"
              d="M2046.88,489.151c-12.589,3.824 -23.38,5.737 -35.97,9.561c-16.186,3.824 -30.574,9.561 -46.761,15.298c-14.388,5.737 -14.388,7.649 -14.388,22.947c3.597,70.752 7.194,143.417 12.59,214.169c5.395,72.665 10.791,145.33 17.985,217.994c1.798,30.596 5.395,61.192 8.992,93.7c-7.194,7.649 -16.186,9.561 -26.977,9.561l-863.276,-0c-12.59,-0 -19.784,-3.825 -25.179,-17.21c-10.791,-24.859 -21.582,-49.718 -28.776,-74.577c-19.784,-66.928 -39.567,-135.769 -59.35,-202.697c-0,-1.912 -1.799,-5.736 -1.799,-9.561c5.396,-1.912 12.59,-5.736 17.985,-7.649c35.97,-9.561 71.94,-21.034 107.91,-28.683c165.461,-34.42 329.124,-68.84 494.585,-103.26c21.582,-3.825 43.164,-9.562 66.544,-13.386l0,-40.157c-5.395,0 -10.791,0 -16.186,1.912c-178.051,36.333 -357.9,72.665 -535.951,108.997c-131.29,26.772 -260.781,53.543 -392.071,78.402c-52.157,9.561 -104.313,19.122 -154.671,26.771l-5.395,0c-7.194,-13.386 -71.94,-348.026 -70.141,-370.972c492.787,-103.261 985.573,-208.433 1480.16,-311.694c3.597,11.474 7.194,21.035 8.992,30.596c10.791,53.542 21.582,108.997 32.373,162.539c10.791,59.279 19.783,116.646 28.776,175.925l-0,11.474Z"/>
    </symbol>
    <!-- shovel -->
    <symbol id="shovel" viewBox="0 0 2450 2700" xmlns="http://www.w3.org/2000/svg" style="fill-rule:evenodd;clip-rule:evenodd;stroke-linejoin:round;stroke-miterlimit:2;">
        <path fill="currentcolor" stroke="currentcolor"
              d="M1960.95,1275.89l-365.123,293.063l129.304,167.755l43.059,198.43l-214.811,-36.381l-158.934,-166.027l-363.359,291.676c-0,0 474.194,620.168 743.152,662.616c268.871,42.862 582.888,-34.202 582.888,-34.202c-0,-0 76.919,-237.33 91.915,-510.485c15.787,-270.992 -488.093,-866.446 -488.093,-866.446l0.002,0.001Zm-547.872,441.846l152.076,158.899l172.22,29.145l-34.384,-158.791l-125.793,-163.129l-1.621,1.278l-624.073,-736.007l41.349,-394.987l-201.13,-251.048l69.593,-56.778l-117.873,-146.315l-743.443,597.881l117.315,148.801l69.595,-56.921l203.523,251.246l399.65,43.096l623.083,733.522l-0.089,0.108l0.002,0Zm-598.206,-867.309l-354.269,-38.253l-167.413,-206.764l393.835,-317.259l165.128,205.9l-37.281,356.375l0,0.001Z"/>
        <path fill="currentcolor" stroke="currentcolor"
              d="M1960.95,1275.89l-365.123,293.063l129.304,167.755l43.059,198.43l-214.811,-36.381l-158.934,-166.027l-363.359,291.676c-0,0 474.194,620.168 743.152,662.616c268.871,42.862 582.888,-34.202 582.888,-34.202c-0,-0 76.919,-237.33 91.915,-510.485c15.787,-270.992 -488.093,-866.446 -488.093,-866.446l0.002,0.001Z"/>
    </symbol>
    <!-- shovel-colored -->
    <symbol id="shovel-colored" viewBox="0 0 2450 2700" xmlns="http://www.w3.org/2000/svg" style="fill-rule:evenodd;clip-rule:evenodd;stroke-linejoin:round;stroke-miterlimit:2;">
        <path style="fill:#755941;"
              d="M1960.95,1275.89l-365.123,293.063l129.304,167.755l43.059,198.43l-214.811,-36.381l-158.934,-166.027l-363.359,291.676c-0,0 474.194,620.168 743.152,662.616c268.871,42.862 582.888,-34.202 582.888,-34.202c-0,-0 76.919,-237.33 91.915,-510.485c15.787,-270.992 -488.093,-866.446 -488.093,-866.446l0.002,0.001Zm-547.872,441.846l152.076,158.899l172.22,29.145l-34.384,-158.791l-125.793,-163.129l-1.621,1.278l-624.073,-736.007l41.349,-394.987l-201.13,-251.048l69.593,-56.778l-117.873,-146.315l-743.443,597.881l117.315,148.801l69.595,-56.921l203.523,251.246l399.65,43.096l623.083,733.522l-0.089,0.108l0.002,0Zm-598.206,-867.309l-354.269,-38.253l-167.413,-206.764l393.835,-317.259l165.128,205.9l-37.281,356.375l0,0.001Z"/>
        <path style="fill:#6c757d;"
              d="M1960.95,1275.89l-365.123,293.063l129.304,167.755l43.059,198.43l-214.811,-36.381l-158.934,-166.027l-363.359,291.676c-0,0 474.194,620.168 743.152,662.616c268.871,42.862 582.888,-34.202 582.888,-34.202c-0,-0 76.919,-237.33 91.915,-510.485c15.787,-270.992 -488.093,-866.446 -488.093,-866.446l0.002,0.001Z"/>
    </symbol>
    <!-- sun -->
    <symbol id="sun" viewBox="0 0 2700 2700" xmlns="http://www.w3.org/2000/svg" style="fill-rule:evenodd;clip-rule:evenodd;stroke-linejoin:round;stroke-miterlimit:2;">
        <path fill="currentcolor" stroke="currentcolor"
              d="M1269.97,641.635c21.312,16.751 49.19,24.029 79.08,24.029c0.709,0.085 1.519,0.085 2.33,0.085l2.414,-0c26.766,0.05 51.791,-8.174 70.366,-25.111c18.592,-16.97 29.534,-42.536 29.484,-73.101c-0,-13.762 -2.094,-28.639 -6.518,-44.411l-87.539,-511.017c-1.25,-6.975 -7.278,-12.108 -14.388,-12.108c-7.142,-0.084 -13.272,4.999 -14.437,12.057l-91.508,522.736c-2.33,10.942 -3.478,21.31 -3.478,31.358c-0.17,32.405 12.918,58.9 34.194,75.482l0,0.001Z"/>
        <path fill="currentcolor" stroke="currentcolor"
              d="M1688.34,761.189c18.136,11.567 38.467,18.237 58.799,18.237l0.81,0c42.891,0 82.034,-32.033 97.182,-91.811l182.423,-485.249c2.466,-6.619 -0.135,-14.116 -6.299,-17.696c-6.078,-3.665 -13.897,-2.28 -18.491,3.123l-342.945,404.919l-0.034,-0.017c-22.475,24.756 -33.604,50.795 -33.468,75.871c0.05,39.362 26.106,71.582 62.023,92.622l0,0.001Z"/>
        <path fill="currentcolor" stroke="currentcolor"
              d="M2004.67,860.735c-52.905,15.907 -79.923,53.48 -79.265,94.361c-0,21.987 6.924,44.277 18.947,65.537c16.971,33.772 48.261,57.548 85.648,57.498c28.504,-0 58.478,-13.763 86.678,-41.912l402.604,-326.651c5.488,-4.509 7.008,-12.243 3.53,-18.541c-3.445,-6.164 -10.943,-8.984 -17.647,-6.519l-500.445,176.294l-0.05,-0.067l0,0Z"/>
        <path fill="currentcolor" stroke="currentcolor"
              d="M2688.11,1359.96l-521.215,-99.731c-11.804,-2.685 -22.882,-3.968 -33.368,-3.968c-65.502,-0.675 -99.224,53.259 -99.326,111.653c-0.135,1.789 -0.27,4.204 -0.27,6.788c-0,26.68 8.257,51.605 25.33,70.011c16.971,18.456 42.402,29.349 72.831,29.349l0.624,-0c13.189,-0 27.441,-1.875 42.572,-5.758l512.232,-79.57c7.059,-1.08 12.242,-7.109 12.378,-14.201c0.135,-7.109 -4.779,-13.222 -11.787,-14.573l-0.001,0Z"/>
        <path fill="currentcolor" stroke="currentcolor"
              d="M2100.36,1672.09c-24.671,-22.56 -50.761,-33.738 -75.905,-33.738c-39.091,0.134 -71.396,26.004 -92.402,61.618c-11.837,18.102 -18.676,38.552 -18.676,59.203c-0.355,43.027 31.459,82.473 91.406,98.026l483.997,185.547c1.655,0.625 3.479,0.946 5.134,0.946c5.099,0 9.912,-2.584 12.597,-7.143c3.715,-6.113 2.364,-13.982 -3.039,-18.541l-403.112,-345.917l-0,-0.001Z"/>
        <path fill="currentcolor" stroke="currentcolor"
              d="M1833.32,2007.1c-16.093,-52.415 -53.565,-79.129 -94.092,-78.589c-22.121,0 -44.631,7.008 -65.773,19.166c-33.553,17.022 -57.413,48.211 -57.278,85.564c-0,28.554 13.813,58.663 42.216,86.982l327.899,401.388c2.82,3.445 7.058,5.37 11.347,5.37c2.467,0 4.915,-0.574 7.144,-1.925c6.214,-3.394 8.932,-10.858 6.568,-17.562l-177.948,-500.445l-0.084,0.051l0.001,-0Z"/>
        <path fill="currentcolor" stroke="currentcolor"
              d="M1417.63,2058.53c-21.126,-16.717 -48.971,-24.081 -78.641,-24.351c-1.08,0 -3.123,-0.084 -5.369,-0.084c-26.816,0 -51.825,8.173 -70.45,25.161c-18.592,16.971 -29.535,42.621 -29.484,73.236c0,13.577 2.06,28.286 6.484,44.057l85.108,511.254c1.081,7.007 7.194,12.107 14.302,12.191c7.11,0 13.189,-5.049 14.439,-12.057l94.09,-522.245l-0.017,-0.017c2.415,-11.263 3.615,-21.885 3.615,-31.848c0.151,-32.32 -12.935,-58.765 -34.077,-75.296l-0,-0.001Z"/>
        <path fill="currentcolor" stroke="currentcolor"
              d="M1006.58,1935.88c-17.968,-11.431 -38.249,-18.101 -58.58,-18.101c-43.381,-0.355 -83.064,31.813 -97.89,92.486l-180.195,485.973c-2.465,6.62 0.186,14.117 6.35,17.697c2.329,1.3 4.829,1.959 7.379,1.959c4.238,0 8.392,-1.823 11.212,-5.184l341.071,-406.573c22.257,-24.671 33.114,-50.626 33.114,-75.735c-0.135,-39.397 -26.495,-71.785 -62.462,-92.522l0.001,0Z"/>
        <path fill="currentcolor" stroke="currentcolor"
              d="M775.861,1746.58c-0.051,-22.526 -7.413,-45.256 -19.656,-66.566c-17.376,-33.249 -48.43,-56.519 -85.462,-56.469c-28.825,-0.05 -59.204,14.067 -87.353,43.247l-397.827,332.223c-5.54,4.509 -6.84,12.294 -3.311,18.542c2.685,4.61 7.549,7.278 12.683,7.278c1.654,-0 3.343,-0.271 4.997,-0.946l498.301,-183.369c51.892,-16.565 78.218,-53.733 77.627,-93.939l0.001,-0.001Z"/>
        <path fill="currentcolor" stroke="currentcolor"
              d="M535.365,1456.2c10.774,2.145 20.956,3.124 30.514,3.124l0.811,0c32.219,0 58.443,-13.053 74.925,-34.127c16.667,-21.176 23.995,-48.92 24.029,-78.724l-0.051,-0l0.136,-0.44c0.05,-1.57 -0,-2.988 -0,-4.289c0.05,-26.933 -8.14,-52.094 -25.111,-70.686c-16.97,-18.727 -42.452,-29.754 -72.966,-29.619c-13.948,0 -29.078,2.229 -45.357,6.975l-510.188,90.612c-7.058,1.199 -12.107,7.328 -12.107,14.438c0,7.108 5.184,13.137 12.242,14.438l523.125,88.298l-0.002,0Z"/>
        <path fill="currentcolor" stroke="currentcolor"
              d="M592.322,1044.14c24.485,21.632 50.22,32.253 74.874,32.253l0.22,0c39.852,-0.05 72.24,-26.9 92.892,-63.357c10.993,-17.866 17.376,-37.894 17.376,-57.769c0.406,-43.786 -32.304,-83.638 -93.551,-97.89l-487.847,-174.876c-6.704,-2.414 -14.168,0.321 -17.646,6.518c-3.53,6.214 -2.01,14.033 3.444,18.491l410.238,336.629l-0,0.001Z"/>
        <path fill="currentcolor" stroke="currentcolor"
              d="M852.357,703.827c16.752,50.356 52.938,76.395 92.165,76.395l1.436,-0c22.881,-0 45.847,-7.735 67.563,-20.382c32.709,-17.596 55.489,-48.566 55.404,-84.973c0.085,-29.213 -14.438,-59.828 -44.006,-88.012l-336.562,-394.112c-4.644,-5.455 -12.462,-6.755 -18.591,-3.091c-6.08,3.58 -8.765,11.163 -6.215,17.731l188.807,496.442l-0.001,0.002Z"/>
        <circle fill="currentcolor" stroke="currentcolor" cx="1350.12" cy="1350" r="642.123"/>
    </symbol>
    <!-- sun-colored -->
    <symbol id="sun-colored" viewBox="0 0 2700 2700" xmlns="http://www.w3.org/2000/svg" style="fill-rule:evenodd;clip-rule:evenodd;stroke-linejoin:round;stroke-miterlimit:2;">
        <path id="_244689624"
              d="M1269.97,641.635c21.312,16.751 49.19,24.029 79.08,24.029c0.709,0.085 1.519,0.085 2.33,0.085l2.414,-0c26.766,0.05 51.791,-8.174 70.366,-25.111c18.592,-16.97 29.534,-42.536 29.484,-73.101c-0,-13.762 -2.094,-28.639 -6.518,-44.411l-87.539,-511.017c-1.25,-6.975 -7.278,-12.108 -14.388,-12.108c-7.142,-0.084 -13.272,4.999 -14.437,12.057l-91.508,522.736c-2.33,10.942 -3.478,21.31 -3.478,31.358c-0.17,32.405 12.918,58.9 34.194,75.482l0,0.001Z"
              style="fill:#ffc107;"/>
        <path id="_244689672"
              d="M1688.34,761.189c18.136,11.567 38.467,18.237 58.799,18.237l0.81,0c42.891,0 82.034,-32.033 97.182,-91.811l182.423,-485.249c2.466,-6.619 -0.135,-14.116 -6.299,-17.696c-6.078,-3.665 -13.897,-2.28 -18.491,3.123l-342.945,404.919l-0.034,-0.017c-22.475,24.756 -33.604,50.795 -33.468,75.871c0.05,39.362 26.106,71.582 62.023,92.622l0,0.001Z"
              style="fill:#ffc107;"/>
        <path id="_244689840"
              d="M2004.67,860.735c-52.905,15.907 -79.923,53.48 -79.265,94.361c-0,21.987 6.924,44.277 18.947,65.537c16.971,33.772 48.261,57.548 85.648,57.498c28.504,-0 58.478,-13.763 86.678,-41.912l402.604,-326.651c5.488,-4.509 7.008,-12.243 3.53,-18.541c-3.445,-6.164 -10.943,-8.984 -17.647,-6.519l-500.445,176.294l-0.05,-0.067l0,0Z"
              style="fill:#ffc107;"/>
        <path id="_244689888"
              d="M2688.11,1359.96l-521.215,-99.731c-11.804,-2.685 -22.882,-3.968 -33.368,-3.968c-65.502,-0.675 -99.224,53.259 -99.326,111.653c-0.135,1.789 -0.27,4.204 -0.27,6.788c-0,26.68 8.257,51.605 25.33,70.011c16.971,18.456 42.402,29.349 72.831,29.349l0.624,-0c13.189,-0 27.441,-1.875 42.572,-5.758l512.232,-79.57c7.059,-1.08 12.242,-7.109 12.378,-14.201c0.135,-7.109 -4.779,-13.222 -11.787,-14.573l-0.001,0Z"
              style="fill:#ffc107;"/>
        <path id="_244690056"
              d="M2100.36,1672.09c-24.671,-22.56 -50.761,-33.738 -75.905,-33.738c-39.091,0.134 -71.396,26.004 -92.402,61.618c-11.837,18.102 -18.676,38.552 -18.676,59.203c-0.355,43.027 31.459,82.473 91.406,98.026l483.997,185.547c1.655,0.625 3.479,0.946 5.134,0.946c5.099,0 9.912,-2.584 12.597,-7.143c3.715,-6.113 2.364,-13.982 -3.039,-18.541l-403.112,-345.917l-0,-0.001Z"
              style="fill:#ffc107;"/>
        <path id="_244690104"
              d="M1833.32,2007.1c-16.093,-52.415 -53.565,-79.129 -94.092,-78.589c-22.121,0 -44.631,7.008 -65.773,19.166c-33.553,17.022 -57.413,48.211 -57.278,85.564c-0,28.554 13.813,58.663 42.216,86.982l327.899,401.388c2.82,3.445 7.058,5.37 11.347,5.37c2.467,0 4.915,-0.574 7.144,-1.925c6.214,-3.394 8.932,-10.858 6.568,-17.562l-177.948,-500.445l-0.084,0.051l0.001,-0Z"
              style="fill:#ffc107;"/>
        <path id="_244690272"
              d="M1417.63,2058.53c-21.126,-16.717 -48.971,-24.081 -78.641,-24.351c-1.08,0 -3.123,-0.084 -5.369,-0.084c-26.816,0 -51.825,8.173 -70.45,25.161c-18.592,16.971 -29.535,42.621 -29.484,73.236c0,13.577 2.06,28.286 6.484,44.057l85.108,511.254c1.081,7.007 7.194,12.107 14.302,12.191c7.11,0 13.189,-5.049 14.439,-12.057l94.09,-522.245l-0.017,-0.017c2.415,-11.263 3.615,-21.885 3.615,-31.848c0.151,-32.32 -12.935,-58.765 -34.077,-75.296l-0,-0.001Z"
              style="fill:#ffc107;"/>
        <path id="_244690320"
              d="M1006.58,1935.88c-17.968,-11.431 -38.249,-18.101 -58.58,-18.101c-43.381,-0.355 -83.064,31.813 -97.89,92.486l-180.195,485.973c-2.465,6.62 0.186,14.117 6.35,17.697c2.329,1.3 4.829,1.959 7.379,1.959c4.238,0 8.392,-1.823 11.212,-5.184l341.071,-406.573c22.257,-24.671 33.114,-50.626 33.114,-75.735c-0.135,-39.397 -26.495,-71.785 -62.462,-92.522l0.001,0Z"
              style="fill:#ffc107;"/>
        <path id="_244690488"
              d="M775.861,1746.58c-0.051,-22.526 -7.413,-45.256 -19.656,-66.566c-17.376,-33.249 -48.43,-56.519 -85.462,-56.469c-28.825,-0.05 -59.204,14.067 -87.353,43.247l-397.827,332.223c-5.54,4.509 -6.84,12.294 -3.311,18.542c2.685,4.61 7.549,7.278 12.683,7.278c1.654,-0 3.343,-0.271 4.997,-0.946l498.301,-183.369c51.892,-16.565 78.218,-53.733 77.627,-93.939l0.001,-0.001Z"
              style="fill:#ffc107;"/>
        <path id="_244690536"
              d="M535.365,1456.2c10.774,2.145 20.956,3.124 30.514,3.124l0.811,0c32.219,0 58.443,-13.053 74.925,-34.127c16.667,-21.176 23.995,-48.92 24.029,-78.724l-0.051,-0l0.136,-0.44c0.05,-1.57 -0,-2.988 -0,-4.289c0.05,-26.933 -8.14,-52.094 -25.111,-70.686c-16.97,-18.727 -42.452,-29.754 -72.966,-29.619c-13.948,0 -29.078,2.229 -45.357,6.975l-510.188,90.612c-7.058,1.199 -12.107,7.328 -12.107,14.438c0,7.108 5.184,13.137 12.242,14.438l523.125,88.298l-0.002,0Z"
              style="fill:#ffc107;"/>
        <path id="_244690752"
              d="M592.322,1044.14c24.485,21.632 50.22,32.253 74.874,32.253l0.22,0c39.852,-0.05 72.24,-26.9 92.892,-63.357c10.993,-17.866 17.376,-37.894 17.376,-57.769c0.406,-43.786 -32.304,-83.638 -93.551,-97.89l-487.847,-174.876c-6.704,-2.414 -14.168,0.321 -17.646,6.518c-3.53,6.214 -2.01,14.033 3.444,18.491l410.238,336.629l-0,0.001Z"
              style="fill:#ffc107;"/>
        <path id="_244690824"
              d="M852.357,703.827c16.752,50.356 52.938,76.395 92.165,76.395l1.436,-0c22.881,-0 45.847,-7.735 67.563,-20.382c32.709,-17.596 55.489,-48.566 55.404,-84.973c0.085,-29.213 -14.438,-59.828 -44.006,-88.012l-336.562,-394.112c-4.644,-5.455 -12.462,-6.755 -18.591,-3.091c-6.08,3.58 -8.765,11.163 -6.215,17.731l188.807,496.442l-0.001,0.002Z"
              style="fill:#ffc107;"/>
        <circle id="_244690800" cx="1350.12" cy="1350" r="642.123" style="fill:#ffc107;"/>
    </symbol>
</svg>