<?xml version="1.0" encoding="UTF-8" standalone="no"?><!DOCTYPE svg PUBLIC "-//W3C//DTD SVG 1.1//EN" "http://www.w3.org/Graphics/SVG/1.1/DTD/svg11.dtd">
<svg width="100%" height="100%" viewBox="0 0 2700 2700" version="1.1" xmlns="http://www.w3.org/2000/svg" xmlns:xlink="http://www.w3.org/1999/xlink" xml:space="preserve"
      style="fill-rule:evenodd;clip-rule:evenodd;stroke-linejoin:round;stroke-miterlimit:2;"><path d="M1784.3,1609.72l0,-49.718l-1212.18,0c-7.194,0 -10.791,-3.824 -12.589,-13.385l-0,-386.271c-0,-17.21 5.395,-21.034 19.783,-21.034l1611.45,-0c8.993,1.912 12.59,5.736 12.59,15.298l-0,380.533c-0,19.123 -3.597,22.947 -21.582,22.947l-89.925,-0c-1.798,13.386 -3.597,24.859 -3.597,36.332c-10.791,110.91 -23.38,223.731 -34.171,334.64c-8.993,87.963 -19.783,175.926 -30.574,263.888c-8.993,70.753 -21.582,139.593 -30.575,210.345c-3.597,24.859 -12.589,43.982 -28.776,63.104c-17.985,21.034 -37.768,42.069 -61.148,59.279c-25.179,17.21 -53.955,24.859 -82.731,24.859l-848.888,-0c-68.343,-0 -118.701,-30.596 -152.872,-93.699c-21.582,-38.245 -35.97,-80.314 -48.559,-122.383c-19.784,-66.928 -32.373,-133.856 -39.567,-202.696c-8.993,-74.577 -16.187,-151.066 -23.381,-225.643c-5.395,-63.104 -8.992,-126.207 -14.388,-187.399c-1.798,-28.683 -5.395,-55.454 -7.194,-84.138l0,-9.561c0,-11.473 3.597,-17.21 14.388,-17.21l89.925,-0c10.791,-0 21.582,-0 32.373,1.912c14.388,0 16.186,0 19.783,17.21c3.597,17.21 7.194,34.42 10.791,51.63c7.194,65.016 16.187,130.032 21.582,195.048c7.194,68.84 12.589,139.593 19.783,208.433c3.597,30.595 7.194,61.191 12.59,91.787c1.798,13.385 7.194,26.771 10.791,40.157c8.992,28.683 17.985,57.366 26.977,84.138c10.791,28.683 23.381,53.542 41.366,76.489c25.178,30.596 55.753,47.806 95.32,47.806c14.388,-0 25.179,-3.825 34.171,-11.474c-39.567,-93.699 -57.552,-193.135 -71.94,-294.483c-14.388,-105.173 -21.582,-212.258 -23.38,-317.43c-1.799,-49.718 -1.799,-99.436 -3.597,-149.154l-0,-26.771c1.798,-11.474 7.194,-15.298 19.783,-13.386c5.396,0 10.791,1.912 17.985,1.912l712.203,0c5.396,-1.912 10.791,-1.912 17.985,-1.912Z" style="fill:#57390f;fill-rule:nonzero;"/>
    <path d="M2046.88,489.151c-12.589,3.824 -23.38,5.737 -35.97,9.561c-16.186,3.824 -30.574,9.561 -46.761,15.298c-14.388,5.737 -14.388,7.649 -14.388,22.947c3.597,70.752 7.194,143.417 12.59,214.169c5.395,72.665 10.791,145.33 17.985,217.994c1.798,30.596 5.395,61.192 8.992,93.7c-7.194,7.649 -16.186,9.561 -26.977,9.561l-863.276,-0c-12.59,-0 -19.784,-3.825 -25.179,-17.21c-10.791,-24.859 -21.582,-49.718 -28.776,-74.577c-19.784,-66.928 -39.567,-135.769 -59.35,-202.697c-0,-1.912 -1.799,-5.736 -1.799,-9.561c5.396,-1.912 12.59,-5.736 17.985,-7.649c35.97,-9.561 71.94,-21.034 107.91,-28.683c165.461,-34.42 329.124,-68.84 494.585,-103.26c21.582,-3.825 43.164,-9.562 66.544,-13.386l0,-40.157c-5.395,0 -10.791,0 -16.186,1.912c-178.051,36.333 -357.9,72.665 -535.951,108.997c-131.29,26.772 -260.781,53.543 -392.071,78.402c-52.157,9.561 -104.313,19.122 -154.671,26.771l-5.395,0c-7.194,-13.386 -71.94,-348.026 -70.141,-370.972c492.787,-103.261 985.573,-208.433 1480.16,-311.694c3.597,11.474 7.194,21.035 8.992,30.596c10.791,53.542 21.582,108.997 32.373,162.539c10.791,59.279 19.783,116.646 28.776,175.925l-0,11.474Z"
          style="fill:#57390f;fill-rule:nonzero;"/></svg>