<?xml version="1.0" encoding="UTF-8" standalone="no"?><!DOCTYPE svg PUBLIC "-//W3C//DTD SVG 1.1//EN" "http://www.w3.org/Graphics/SVG/1.1/DTD/svg11.dtd">
<svg width="100%" height="100%" viewBox="0 0 2701 2222" version="1.1" xmlns="http://www.w3.org/2000/svg" xmlns:xlink="http://www.w3.org/1999/xlink" xml:space="preserve"
      style="fill-rule:evenodd;clip-rule:evenodd;stroke-linejoin:round;stroke-miterlimit:2;"><path id="_244696464" d="M1896.33,200.84c-0,-0 -489.351,12.659 -674.535,265.783c-184.903,253.497 -298.325,229.935 -298.325,229.935l122.43,158.762l850.431,-654.48l-0.001,-0Z" style="fill:#57390f;"/>
    <path id="_244696392"
          d="M2472.39,949.185c92.965,-312.959 132.792,-661.844 -125.724,-881.262c-222.618,-189.626 -302.069,54.738 -336.955,280.292l-67.599,-87.544l-850.026,654.483l270.833,351.51l-760.633,-103.449c-26.747,-87.668 -96.739,-157.365 -186.908,-181.891c-9.987,-4.971 -20.876,-8.637 -32.215,-9.537c-5.872,-0.87 -12.24,0.9 -18.003,1.351c-0.87,0 -1.926,-0.451 -2.796,-0.451l0,0.451c-74.34,11.386 -141.054,117.957 -155.065,254.025c-6.788,68.066 -0.528,133.646 17.707,185.028c21.746,60.703 58.079,96.585 102.906,101.105c13.281,1.398 26.297,-0.451 39.081,-4.521c103.853,-8.092 191.801,-75.708 228.629,-170.644l918.4,124.807l335.682,436.29l850.305,-654.527l-227.622,-295.515l0.003,-0.001Zm-2139.54,488.451c-12.659,-3.744 -27.121,-22.803 -37.186,-50.886c-14.057,-40.355 -19.028,-95.59 -12.985,-151.944c9.087,-92.918 43.025,-157.768 72.616,-180.011c0.745,-0.901 1.227,-0.901 2.143,-1.771l-24.588,384.613l0.001,-0.001Zm2086,-557.868l-344.241,-447.799c4.52,-46.148 9.91,-92.39 17.677,-138.663c10.391,-65.27 26.343,-131.471 61.231,-188.228c74.34,-120.256 217.74,104.226 247.207,156.463c103.357,186.008 78.504,406.901 18.127,618.228l-0.001,-0.001Z"
          style="fill:#57390f;"/>
    <path id="_244696320"
          d="M0,2032.27c0,27.214 21.87,48.944 48.944,48.944c27.214,-0 49.022,-21.745 49.022,-48.944c0,-26.919 -49.022,-82.977 -49.022,-82.977c0,-0 -48.944,56.059 -48.944,82.977Z"
          style="fill:#17a2b8;"/>
    <path id="_244696272"
          d="M331.94,2133.43c0,48.494 39.5,87.994 88.118,87.994c47.998,-0 87.497,-39.454 87.497,-87.994c0,-48.572 -87.497,-148.403 -87.497,-148.403c-0,0 -88.118,99.815 -88.118,148.403Z"
          style="fill:#17a2b8;"/>
    <path id="_244696248"
          d="M261.7,1609.01c-0,0 -82.931,94.86 -82.931,140.108c0,45.946 37.032,83.147 82.931,83.147c45.45,0 82.527,-37.185 82.527,-83.147c-0,-45.248 -82.527,-140.108 -82.527,-140.108Z"
          style="fill:#17a2b8;"/></svg>